<?xml version="1.0" standalone="no"?>
<svg id="Group453" width="62" height="62" viewBox="0 0 62 62" fill="none" xmlns="http://www.w3.org/2000/svg" style="max-width: 100%; max-height: 100%;">
<mask id="path-1-inside-1_4083_157" fill="white">
<path d="M59.9718 30.3442L55.1122 24.2767C55.068 24.2214 55.0044 24.191 54.9353 24.191H49.5339C49.4759 24.191 49.4178 24.2159 49.3763 24.2574C49.3321 24.3016 49.31 24.3569 49.31 24.4177V30.488C49.31 30.6124 49.4095 30.7147 49.5339 30.7147H59.7949C59.8833 30.7147 59.9635 30.6649 60.0022 30.5847C60.0381 30.5073 60.0298 30.4133 59.9745 30.3442H59.9718ZM48.0245 35.0545C47.585 35.0545 47.2284 34.6979 47.2284 34.2584C47.2284 33.8189 47.585 33.4623 48.0245 33.4623H49.5808C50.0203 33.4623 50.3769 33.8189 50.3769 34.2584C50.3769 34.6979 50.0203 35.0545 49.5808 35.0545H48.0245ZM60.8669 36.5196H59.6838C59.5567 36.5196 59.4544 36.6218 59.4544 36.749V39.3336C59.4544 39.4607 59.5567 39.5602 59.6838 39.5602H61.7736C61.8344 39.5602 61.8925 39.5353 61.9339 39.4939C61.9754 39.4524 62.0003 39.3944 62.0003 39.3336V37.3875C62.0003 36.6909 61.4309 36.5196 60.8669 36.5196ZM38.4931 43.4468H28.8981C28.4973 43.4496 28.1711 43.773 28.1684 44.1766V47.0292C28.1711 47.4301 28.4973 47.7562 28.8981 47.759H38.4931C38.894 47.7562 39.2201 47.43 39.2229 47.0292V44.1766C39.2201 43.7757 38.8939 43.4496 38.4931 43.4468ZM19.0518 42.5263C17.8687 41.3432 16.0913 40.9894 14.5488 41.6307C13.0036 42.2693 11.9974 43.7758 11.9974 45.4481C11.9974 47.1178 13.0036 48.6243 14.5488 49.2656C16.0913 49.9041 17.8687 49.5503 19.0518 48.3672C20.6634 46.7557 20.6634 44.1406 19.0518 42.5263ZM53.8676 42.5263C52.6844 41.3432 50.9098 40.9921 49.3646 41.6307C47.8221 42.2693 46.8131 43.7758 46.8131 45.4481C46.8131 47.1178 47.8221 48.6243 49.3646 49.2628C50.9098 49.9041 52.6844 49.5503 53.8676 48.3672C54.6416 47.5932 55.0783 46.5428 55.0783 45.4481C55.0783 44.3507 54.6415 43.3003 53.8676 42.5263ZM56.8115 44.6493H61.7734C61.8342 44.6493 61.8922 44.6272 61.9337 44.5829C61.9779 44.5415 62 44.4834 62 44.4226V41.3791C62 41.2548 61.9005 41.1525 61.7734 41.1525H56.5295C56.3139 41.158 56.1066 41.0778 55.9518 40.9258C55.797 40.7765 55.7113 40.572 55.7113 40.3564C55.7113 40.1408 55.797 39.9334 55.9518 39.7842C56.1066 39.6349 56.3139 39.552 56.5295 39.5603H57.638C57.696 39.5603 57.7541 39.5354 57.7983 39.4939C57.8398 39.4525 57.8647 39.3944 57.8647 39.3336V35.7234V35.7262C57.8647 35.5134 57.9476 35.3116 58.0969 35.1595C58.2461 35.0103 58.4507 34.9273 58.6608 34.9273H60.1093C60.1701 34.9273 60.2281 34.9052 60.2696 34.861C60.3138 34.8195 60.3387 34.7615 60.3387 34.7007V32.5335C60.3387 32.4727 60.3138 32.4146 60.2696 32.3732C60.2281 32.3289 60.1701 32.3068 60.1093 32.3068H48.513C48.0735 32.3068 47.7169 31.9502 47.7169 31.5107V23.3947C47.7169 22.9579 48.0735 22.6013 48.513 22.5985H53.2841C53.3726 22.6013 53.4527 22.5488 53.4914 22.4659C53.5274 22.3857 53.5135 22.2917 53.4555 22.2226C52.9248 21.4818 52.0872 21.0202 51.1749 20.9677H43.4347C43.3103 20.9677 43.2108 21.0672 43.208 21.1916V39.3336C43.2108 39.458 43.3103 39.5575 43.4347 39.5603H45.3614C45.577 39.552 45.7843 39.6349 45.9391 39.7842C46.0939 39.9335 46.1824 40.1408 46.1824 40.3564C46.1824 40.572 46.0939 40.7766 45.9391 40.9258C45.7843 41.0779 45.577 41.158 45.3614 41.1525H22.0584C21.8428 41.158 21.6355 41.0779 21.4807 40.9258C21.3259 40.7766 21.2402 40.572 21.2402 40.3564C21.2402 40.1408 21.3259 39.9335 21.4807 39.7842C21.6355 39.6349 21.8428 39.552 22.0584 39.5603H41.3915C41.4495 39.5603 41.5076 39.5354 41.5518 39.4939C41.5933 39.4525 41.6181 39.3944 41.6154 39.3336V14.1349C41.6181 14.0741 41.5933 14.016 41.5518 13.9745C41.5076 13.9331 41.4495 13.9082 41.3915 13.9082H5.61615C5.49176 13.9082 5.38949 14.0105 5.38672 14.1349V39.3336C5.38948 39.4608 5.49176 39.5603 5.61615 39.5603H9.82059C10.0334 39.552 10.2435 39.6349 10.3983 39.7842C10.5531 39.9335 10.6388 40.1408 10.6388 40.3564C10.6388 40.572 10.5531 40.7766 10.3983 40.9258C10.2435 41.0779 10.0334 41.158 9.82059 41.1525H5.61615C5.49176 41.1525 5.38949 41.2548 5.38672 41.3792V43.0516C5.38672 43.1262 5.42265 43.1981 5.489 43.2395L7.48202 44.6106V44.6078C7.51796 44.6355 7.56219 44.6493 7.60918 44.6493H10.2656C10.3762 44.6493 10.4702 44.5719 10.4868 44.4613C10.965 41.722 13.3451 39.7234 16.1259 39.7234C18.9095 39.7234 21.2868 41.722 21.7678 44.4613C21.7844 44.5691 21.8784 44.6493 21.9889 44.6493H26.3454C26.619 44.6493 26.5748 44.3452 26.5748 44.1766C26.5803 42.8968 27.617 41.8602 28.8968 41.8574H38.4918C39.7717 41.8602 40.8082 42.8968 40.811 44.1766C40.811 44.3452 40.7695 44.6493 41.0404 44.6493H45.0818H45.079C45.1896 44.6493 45.2863 44.5719 45.3057 44.4613C45.7839 41.722 48.1612 39.7234 50.9448 39.7234C53.7256 39.7234 56.1029 41.722 56.5811 44.4613C56.6004 44.5719 56.6972 44.6493 56.8077 44.6493L56.8115 44.6493Z" stroke-dasharray="0,0,0,430.35443115234375"><animate attributeType="XML" attributeName="stroke-dasharray" restart="always" repeatCount="indefinite" begin="0s" dur="3.125s" values="0,0,0,430.35443115234375; 
          0,215.17721557617188,215.17721557617188,0; 
          430.35443115234375,0,0,0" keyTimes="0; 0.5; 1" fill="freeze"></animate></path>
</mask>
<path d="M59.9718 30.3442L55.1122 24.2767C55.068 24.2214 55.0044 24.191 54.9353 24.191H49.5339C49.4759 24.191 49.4178 24.2159 49.3763 24.2574C49.3321 24.3016 49.31 24.3569 49.31 24.4177V30.488C49.31 30.6124 49.4095 30.7147 49.5339 30.7147H59.7949C59.8833 30.7147 59.9635 30.6649 60.0022 30.5847C60.0381 30.5073 60.0298 30.4133 59.9745 30.3442H59.9718ZM48.0245 35.0545C47.585 35.0545 47.2284 34.6979 47.2284 34.2584C47.2284 33.8189 47.585 33.4623 48.0245 33.4623H49.5808C50.0203 33.4623 50.3769 33.8189 50.3769 34.2584C50.3769 34.6979 50.0203 35.0545 49.5808 35.0545H48.0245ZM60.8669 36.5196H59.6838C59.5567 36.5196 59.4544 36.6218 59.4544 36.749V39.3336C59.4544 39.4607 59.5567 39.5602 59.6838 39.5602H61.7736C61.8344 39.5602 61.8925 39.5353 61.9339 39.4939C61.9754 39.4524 62.0003 39.3944 62.0003 39.3336V37.3875C62.0003 36.6909 61.4309 36.5196 60.8669 36.5196ZM38.4931 43.4468H28.8981C28.4973 43.4496 28.1711 43.773 28.1684 44.1766V47.0292C28.1711 47.4301 28.4973 47.7562 28.8981 47.759H38.4931C38.894 47.7562 39.2201 47.43 39.2229 47.0292V44.1766C39.2201 43.7757 38.8939 43.4496 38.4931 43.4468ZM19.0518 42.5263C17.8687 41.3432 16.0913 40.9894 14.5488 41.6307C13.0036 42.2693 11.9974 43.7758 11.9974 45.4481C11.9974 47.1178 13.0036 48.6243 14.5488 49.2656C16.0913 49.9041 17.8687 49.5503 19.0518 48.3672C20.6634 46.7557 20.6634 44.1406 19.0518 42.5263ZM53.8676 42.5263C52.6844 41.3432 50.9098 40.9921 49.3646 41.6307C47.8221 42.2693 46.8131 43.7758 46.8131 45.4481C46.8131 47.1178 47.8221 48.6243 49.3646 49.2628C50.9098 49.9041 52.6844 49.5503 53.8676 48.3672C54.6416 47.5932 55.0783 46.5428 55.0783 45.4481C55.0783 44.3507 54.6415 43.3003 53.8676 42.5263ZM56.8115 44.6493H61.7734C61.8342 44.6493 61.8922 44.6272 61.9337 44.5829C61.9779 44.5415 62 44.4834 62 44.4226V41.3791C62 41.2548 61.9005 41.1525 61.7734 41.1525H56.5295C56.3139 41.158 56.1066 41.0778 55.9518 40.9258C55.797 40.7765 55.7113 40.572 55.7113 40.3564C55.7113 40.1408 55.797 39.9334 55.9518 39.7842C56.1066 39.6349 56.3139 39.552 56.5295 39.5603H57.638C57.696 39.5603 57.7541 39.5354 57.7983 39.4939C57.8398 39.4525 57.8647 39.3944 57.8647 39.3336V35.7234V35.7262C57.8647 35.5134 57.9476 35.3116 58.0969 35.1595C58.2461 35.0103 58.4507 34.9273 58.6608 34.9273H60.1093C60.1701 34.9273 60.2281 34.9052 60.2696 34.861C60.3138 34.8195 60.3387 34.7615 60.3387 34.7007V32.5335C60.3387 32.4727 60.3138 32.4146 60.2696 32.3732C60.2281 32.3289 60.1701 32.3068 60.1093 32.3068H48.513C48.0735 32.3068 47.7169 31.9502 47.7169 31.5107V23.3947C47.7169 22.9579 48.0735 22.6013 48.513 22.5985H53.2841C53.3726 22.6013 53.4527 22.5488 53.4914 22.4659C53.5274 22.3857 53.5135 22.2917 53.4555 22.2226C52.9248 21.4818 52.0872 21.0202 51.1749 20.9677H43.4347C43.3103 20.9677 43.2108 21.0672 43.208 21.1916V39.3336C43.2108 39.458 43.3103 39.5575 43.4347 39.5603H45.3614C45.577 39.552 45.7843 39.6349 45.9391 39.7842C46.0939 39.9335 46.1824 40.1408 46.1824 40.3564C46.1824 40.572 46.0939 40.7766 45.9391 40.9258C45.7843 41.0779 45.577 41.158 45.3614 41.1525H22.0584C21.8428 41.158 21.6355 41.0779 21.4807 40.9258C21.3259 40.7766 21.2402 40.572 21.2402 40.3564C21.2402 40.1408 21.3259 39.9335 21.4807 39.7842C21.6355 39.6349 21.8428 39.552 22.0584 39.5603H41.3915C41.4495 39.5603 41.5076 39.5354 41.5518 39.4939C41.5933 39.4525 41.6181 39.3944 41.6154 39.3336V14.1349C41.6181 14.0741 41.5933 14.016 41.5518 13.9745C41.5076 13.9331 41.4495 13.9082 41.3915 13.9082H5.61615C5.49176 13.9082 5.38949 14.0105 5.38672 14.1349V39.3336C5.38948 39.4608 5.49176 39.5603 5.61615 39.5603H9.82059C10.0334 39.552 10.2435 39.6349 10.3983 39.7842C10.5531 39.9335 10.6388 40.1408 10.6388 40.3564C10.6388 40.572 10.5531 40.7766 10.3983 40.9258C10.2435 41.0779 10.0334 41.158 9.82059 41.1525H5.61615C5.49176 41.1525 5.38949 41.2548 5.38672 41.3792V43.0516C5.38672 43.1262 5.42265 43.1981 5.489 43.2395L7.48202 44.6106V44.6078C7.51796 44.6355 7.56219 44.6493 7.60918 44.6493H10.2656C10.3762 44.6493 10.4702 44.5719 10.4868 44.4613C10.965 41.722 13.3451 39.7234 16.1259 39.7234C18.9095 39.7234 21.2868 41.722 21.7678 44.4613C21.7844 44.5691 21.8784 44.6493 21.9889 44.6493H26.3454C26.619 44.6493 26.5748 44.3452 26.5748 44.1766C26.5803 42.8968 27.617 41.8602 28.8968 41.8574H38.4918C39.7717 41.8602 40.8082 42.8968 40.811 44.1766C40.811 44.3452 40.7695 44.6493 41.0404 44.6493H45.0818H45.079C45.1896 44.6493 45.2863 44.5719 45.3057 44.4613C45.7839 41.722 48.1612 39.7234 50.9448 39.7234C53.7256 39.7234 56.1029 41.722 56.5811 44.4613C56.6004 44.5719 56.6972 44.6493 56.8077 44.6493L56.8115 44.6493Z" stroke="url(#paint0_linear_4083_157)" stroke-width="2" mask="url(#path-1-inside-1_4083_157)" stroke-dasharray="0,0,0,430.35443115234375"><animate attributeType="XML" attributeName="stroke-dasharray" restart="always" repeatCount="indefinite" begin="0s" dur="3.125s" values="0,0,0,430.35443115234375; 
          0,215.17721557617188,215.17721557617188,0; 
          430.35443115234375,0,0,0" keyTimes="0; 0.5; 1" fill="freeze"></animate></path>
<path d="M1.25488 16.292H38.1807M38.1807 22.6221H1.25488" stroke="url(#paint1_linear_4083_157)" stroke-dasharray="0,0,0,73.85163879394531"><animate attributeType="XML" attributeName="stroke-dasharray" restart="always" repeatCount="indefinite" begin="0s" dur="3.125s" values="0,0,0,73.85163879394531; 
          0,36.925819396972656,36.925819396972656,0; 
          73.85163879394531,0,0,0" keyTimes="0; 0.5; 1" fill="freeze"></animate></path>
<mask id="path-3-inside-2_4083_157" fill="white">
<ellipse cx="1.25514" cy="19.4573" rx="0.820574" ry="3.2823"></ellipse>
</mask>
<path d="M1.07572 19.4573C1.07572 20.3066 0.988705 21.0419 0.865236 21.5357C0.801578 21.7904 0.741685 21.9255 0.713682 21.9729C0.646111 22.0872 0.796614 21.7396 1.25514 21.7396V23.7396C1.94027 23.7396 2.30664 23.2084 2.43542 22.9905C2.60376 22.7057 2.72068 22.3602 2.80552 22.0208C2.97904 21.3267 3.07572 20.4209 3.07572 19.4573H1.07572ZM1.25514 21.7396C1.71368 21.7396 1.86418 22.0872 1.79661 21.9729C1.7686 21.9255 1.70871 21.7904 1.64505 21.5357C1.52158 21.0419 1.43457 20.3066 1.43457 19.4573H-0.56543C-0.56543 20.4209 -0.468752 21.3267 -0.295232 22.0208C-0.210394 22.3602 -0.0934681 22.7057 0.0748729 22.9905C0.203646 23.2084 0.570019 23.7396 1.25514 23.7396V21.7396ZM1.43457 19.4573C1.43457 18.6081 1.52158 17.8728 1.64505 17.3789C1.70871 17.1243 1.7686 16.9892 1.79661 16.9418C1.86418 16.8275 1.71368 17.175 1.25514 17.175V15.175C0.570019 15.175 0.203646 15.7063 0.0748729 15.9242C-0.0934681 16.209 -0.210394 16.5545 -0.295232 16.8939C-0.468752 17.588 -0.56543 18.4938 -0.56543 19.4573H1.43457ZM1.25514 17.175C0.796614 17.175 0.646111 16.8275 0.713682 16.9418C0.741685 16.9892 0.801578 17.1243 0.865236 17.3789C0.988705 17.8728 1.07572 18.6081 1.07572 19.4573H3.07572C3.07572 18.4938 2.97904 17.588 2.80552 16.8939C2.72068 16.5545 2.60376 16.209 2.43542 15.9242C2.30664 15.7063 1.94027 15.175 1.25514 15.175V17.175Z" fill="url(#paint2_linear_4083_157)" mask="url(#path-3-inside-2_4083_157)" stroke-dasharray="0,0,0,49.254154205322266"><animate attributeType="XML" attributeName="stroke-dasharray" restart="always" repeatCount="indefinite" begin="0s" dur="3.125s" values="0,0,0,49.254154205322266; 
          0,24.627077102661133,24.627077102661133,0; 
          49.254154205322266,0,0,0" keyTimes="0; 0.5; 1" fill="freeze"></animate></path>
<mask id="path-5-inside-3_4083_157" fill="white">
<ellipse cx="38.1809" cy="19.4573" rx="0.820574" ry="3.2823"></ellipse>
</mask>
<path d="M38.0015 19.4573C38.0015 20.3066 37.9145 21.0419 37.791 21.5357C37.7274 21.7904 37.6675 21.9255 37.6395 21.9729C37.5719 22.0872 37.7224 21.7396 38.1809 21.7396V23.7396C38.8661 23.7396 39.2324 23.2084 39.3612 22.9905C39.5295 22.7057 39.6465 22.3602 39.7313 22.0208C39.9048 21.3267 40.0015 20.4209 40.0015 19.4573H38.0015ZM38.1809 21.7396C38.6395 21.7396 38.79 22.0872 38.7224 21.9729C38.6944 21.9255 38.6345 21.7904 38.5708 21.5357C38.4474 21.0419 38.3604 20.3066 38.3604 19.4573H36.3604C36.3604 20.4209 36.457 21.3267 36.6305 22.0208C36.7154 22.3602 36.8323 22.7057 37.0007 22.9905C37.1294 23.2084 37.4958 23.7396 38.1809 23.7396V21.7396ZM38.3604 19.4573C38.3604 18.6081 38.4474 17.8728 38.5708 17.3789C38.6345 17.1243 38.6944 16.9892 38.7224 16.9418C38.79 16.8275 38.6395 17.175 38.1809 17.175V15.175C37.4958 15.175 37.1294 15.7063 37.0007 15.9242C36.8323 16.209 36.7154 16.5545 36.6305 16.8939C36.457 17.588 36.3604 18.4938 36.3604 19.4573H38.3604ZM38.1809 17.175C37.7224 17.175 37.5719 16.8275 37.6395 16.9418C37.6675 16.9892 37.7274 17.1243 37.791 17.3789C37.9145 17.8728 38.0015 18.6081 38.0015 19.4573H40.0015C40.0015 18.4938 39.9048 17.588 39.7313 16.8939C39.6465 16.5545 39.5295 16.209 39.3612 15.9242C39.2324 15.7063 38.8661 15.175 38.1809 15.175V17.175Z" fill="url(#paint3_linear_4083_157)" mask="url(#path-5-inside-3_4083_157)" stroke-dasharray="0,0,0,49.25421142578125"><animate attributeType="XML" attributeName="stroke-dasharray" restart="always" repeatCount="indefinite" begin="0s" dur="3.125s" values="0,0,0,49.25421142578125; 
          0,24.627105712890625,24.627105712890625,0; 
          49.25421142578125,0,0,0" keyTimes="0; 0.5; 1" fill="freeze"></animate></path>
<path d="M1.25488 24.0762H38.1807M38.1807 30.4063H1.25488" stroke="url(#paint4_linear_4083_157)" stroke-dasharray="0,0,0,73.85163879394531"><animate attributeType="XML" attributeName="stroke-dasharray" restart="always" repeatCount="indefinite" begin="0s" dur="3.125s" values="0,0,0,73.85163879394531; 
          0,36.925819396972656,36.925819396972656,0; 
          73.85163879394531,0,0,0" keyTimes="0; 0.5; 1" fill="freeze"></animate></path>
<mask id="path-8-inside-4_4083_157" fill="white">
<ellipse cx="1.25514" cy="27.2413" rx="0.820574" ry="3.2823"></ellipse>
</mask>
<path d="M1.07572 27.2413C1.07572 28.0905 0.988705 28.8258 0.865236 29.3197C0.801578 29.5743 0.741685 29.7094 0.713682 29.7568C0.646111 29.8711 0.796614 29.5236 1.25514 29.5236V31.5236C1.94027 31.5236 2.30664 30.9923 2.43542 30.7745C2.60376 30.4897 2.72068 30.1441 2.80552 29.8048C2.97904 29.1107 3.07572 28.2048 3.07572 27.2413H1.07572ZM1.25514 29.5236C1.71368 29.5236 1.86418 29.8711 1.79661 29.7568C1.7686 29.7094 1.70871 29.5743 1.64505 29.3197C1.52158 28.8258 1.43457 28.0905 1.43457 27.2413H-0.56543C-0.56543 28.2048 -0.468752 29.1107 -0.295232 29.8048C-0.210394 30.1441 -0.0934681 30.4897 0.0748729 30.7745C0.203646 30.9923 0.570019 31.5236 1.25514 31.5236V29.5236ZM1.43457 27.2413C1.43457 26.392 1.52158 25.6568 1.64505 25.1629C1.70871 24.9083 1.7686 24.7731 1.79661 24.7258C1.86418 24.6114 1.71368 24.959 1.25514 24.959V22.959C0.570019 22.959 0.203646 23.4902 0.0748729 23.7081C-0.0934681 23.9929 -0.210394 24.3385 -0.295232 24.6778C-0.468752 25.3719 -0.56543 26.2778 -0.56543 27.2413H1.43457ZM1.25514 24.959C0.796614 24.959 0.646111 24.6114 0.713682 24.7258C0.741685 24.7731 0.801578 24.9083 0.865236 25.1629C0.988705 25.6568 1.07572 26.392 1.07572 27.2413H3.07572C3.07572 26.2778 2.97904 25.3719 2.80552 24.6778C2.72068 24.3385 2.60376 23.9929 2.43542 23.7081C2.30664 23.4902 1.94027 22.959 1.25514 22.959V24.959Z" fill="url(#paint5_linear_4083_157)" mask="url(#path-8-inside-4_4083_157)" stroke-dasharray="0,0,0,49.25395584106445"><animate attributeType="XML" attributeName="stroke-dasharray" restart="always" repeatCount="indefinite" begin="0s" dur="3.125s" values="0,0,0,49.25395584106445; 
          0,24.626977920532227,24.626977920532227,0; 
          49.25395584106445,0,0,0" keyTimes="0; 0.5; 1" fill="freeze"></animate></path>
<mask id="path-10-inside-5_4083_157" fill="white">
<ellipse cx="38.1809" cy="27.2413" rx="0.820574" ry="3.2823"></ellipse>
</mask>
<path d="M38.0015 27.2413C38.0015 28.0905 37.9145 28.8258 37.791 29.3197C37.7274 29.5743 37.6675 29.7094 37.6395 29.7568C37.5719 29.8711 37.7224 29.5236 38.1809 29.5236V31.5236C38.8661 31.5236 39.2324 30.9923 39.3612 30.7745C39.5295 30.4897 39.6465 30.1441 39.7313 29.8048C39.9048 29.1107 40.0015 28.2048 40.0015 27.2413H38.0015ZM38.1809 29.5236C38.6395 29.5236 38.79 29.8711 38.7224 29.7568C38.6944 29.7094 38.6345 29.5743 38.5708 29.3197C38.4474 28.8258 38.3604 28.0905 38.3604 27.2413H36.3604C36.3604 28.2048 36.457 29.1107 36.6305 29.8048C36.7154 30.1441 36.8323 30.4897 37.0007 30.7745C37.1294 30.9923 37.4958 31.5236 38.1809 31.5236V29.5236ZM38.3604 27.2413C38.3604 26.392 38.4474 25.6568 38.5708 25.1629C38.6345 24.9083 38.6944 24.7731 38.7224 24.7258C38.79 24.6114 38.6395 24.959 38.1809 24.959V22.959C37.4958 22.959 37.1294 23.4902 37.0007 23.7081C36.8323 23.9929 36.7154 24.3385 36.6305 24.6778C36.457 25.3719 36.3604 26.2778 36.3604 27.2413H38.3604ZM38.1809 24.959C37.7224 24.959 37.5719 24.6114 37.6395 24.7258C37.6675 24.7731 37.7274 24.9083 37.791 25.1629C37.9145 25.6568 38.0015 26.392 38.0015 27.2413H40.0015C40.0015 26.2778 39.9048 25.3719 39.7313 24.6778C39.6465 24.3385 39.5295 23.9929 39.3612 23.7081C39.2324 23.4902 38.8661 22.959 38.1809 22.959V24.959Z" fill="url(#paint6_linear_4083_157)" mask="url(#path-10-inside-5_4083_157)" stroke-dasharray="0,0,0,49.254005432128906"><animate attributeType="XML" attributeName="stroke-dasharray" restart="always" repeatCount="indefinite" begin="0s" dur="3.125s" values="0,0,0,49.254005432128906; 
          0,24.627002716064453,24.627002716064453,0; 
          49.254005432128906,0,0,0" keyTimes="0; 0.5; 1" fill="freeze"></animate></path>
<path d="M1.25488 31.8604H38.1807M38.1807 38.1905H1.25488" stroke="url(#paint7_linear_4083_157)" stroke-dasharray="0,0,0,73.85163879394531"><animate attributeType="XML" attributeName="stroke-dasharray" restart="always" repeatCount="indefinite" begin="0s" dur="3.125s" values="0,0,0,73.85163879394531; 
          0,36.925819396972656,36.925819396972656,0; 
          73.85163879394531,0,0,0" keyTimes="0; 0.5; 1" fill="freeze"></animate></path>
<mask id="path-13-inside-6_4083_157" fill="white">
<ellipse cx="1.25514" cy="35.0257" rx="0.820574" ry="3.2823"></ellipse>
</mask>
<path d="M1.07572 35.0257C1.07572 35.875 0.988705 36.6102 0.865236 37.1041C0.801578 37.3587 0.741685 37.4939 0.713682 37.5412C0.646111 37.6556 0.796614 37.308 1.25514 37.308V39.308C1.94027 39.308 2.30664 38.7768 2.43542 38.5589C2.60376 38.2741 2.72068 37.9285 2.80552 37.5892C2.97904 36.8951 3.07572 35.9892 3.07572 35.0257H1.07572ZM1.25514 37.308C1.71368 37.308 1.86418 37.6556 1.79661 37.5412C1.7686 37.4939 1.70871 37.3587 1.64505 37.1041C1.52158 36.6102 1.43457 35.875 1.43457 35.0257H-0.56543C-0.56543 35.9892 -0.468752 36.8951 -0.295232 37.5892C-0.210394 37.9285 -0.0934681 38.2741 0.0748729 38.5589C0.203646 38.7768 0.570019 39.308 1.25514 39.308V37.308ZM1.43457 35.0257C1.43457 34.1765 1.52158 33.4412 1.64505 32.9473C1.70871 32.6927 1.7686 32.5576 1.79661 32.5102C1.86418 32.3959 1.71368 32.7434 1.25514 32.7434V30.7434C0.570019 30.7434 0.203646 31.2747 0.0748729 31.4925C-0.0934681 31.7773 -0.210394 32.1229 -0.295232 32.4622C-0.468752 33.1563 -0.56543 34.0622 -0.56543 35.0257H1.43457ZM1.25514 32.7434C0.796614 32.7434 0.646111 32.3959 0.713682 32.5102C0.741685 32.5576 0.801578 32.6927 0.865236 32.9473C0.988705 33.4412 1.07572 34.1765 1.07572 35.0257H3.07572C3.07572 34.0622 2.97904 33.1563 2.80552 32.4622C2.72068 32.1229 2.60376 31.7773 2.43542 31.4925C2.30664 31.2747 1.94027 30.7434 1.25514 30.7434V32.7434Z" fill="url(#paint8_linear_4083_157)" mask="url(#path-13-inside-6_4083_157)" stroke-dasharray="0,0,0,49.25404357910156"><animate attributeType="XML" attributeName="stroke-dasharray" restart="always" repeatCount="indefinite" begin="0s" dur="3.125s" values="0,0,0,49.25404357910156; 
          0,24.62702178955078,24.62702178955078,0; 
          49.25404357910156,0,0,0" keyTimes="0; 0.5; 1" fill="freeze"></animate></path>
<mask id="path-15-inside-7_4083_157" fill="white">
<ellipse cx="38.1809" cy="35.0257" rx="0.820574" ry="3.2823"></ellipse>
</mask>
<path d="M38.0015 35.0257C38.0015 35.875 37.9145 36.6102 37.791 37.1041C37.7274 37.3587 37.6675 37.4939 37.6395 37.5412C37.5719 37.6556 37.7224 37.308 38.1809 37.308V39.308C38.8661 39.308 39.2324 38.7768 39.3612 38.5589C39.5295 38.2741 39.6465 37.9285 39.7313 37.5892C39.9048 36.8951 40.0015 35.9892 40.0015 35.0257H38.0015ZM38.1809 37.308C38.6395 37.308 38.79 37.6556 38.7224 37.5412C38.6944 37.4939 38.6345 37.3587 38.5708 37.1041C38.4474 36.6102 38.3604 35.875 38.3604 35.0257H36.3604C36.3604 35.9892 36.457 36.8951 36.6305 37.5892C36.7154 37.9285 36.8323 38.2741 37.0007 38.5589C37.1294 38.7768 37.4958 39.308 38.1809 39.308V37.308ZM38.3604 35.0257C38.3604 34.1765 38.4474 33.4412 38.5708 32.9473C38.6345 32.6927 38.6944 32.5576 38.7224 32.5102C38.79 32.3959 38.6395 32.7434 38.1809 32.7434V30.7434C37.4958 30.7434 37.1294 31.2747 37.0007 31.4925C36.8323 31.7773 36.7154 32.1229 36.6305 32.4622C36.457 33.1563 36.3604 34.0622 36.3604 35.0257H38.3604ZM38.1809 32.7434C37.7224 32.7434 37.5719 32.3959 37.6395 32.5102C37.6675 32.5576 37.7274 32.6927 37.791 32.9473C37.9145 33.4412 38.0015 34.1765 38.0015 35.0257H40.0015C40.0015 34.0622 39.9048 33.1563 39.7313 32.4622C39.6465 32.1229 39.5295 31.7773 39.3612 31.4925C39.2324 31.2747 38.8661 30.7434 38.1809 30.7434V32.7434Z" fill="url(#paint9_linear_4083_157)" mask="url(#path-15-inside-7_4083_157)" stroke-dasharray="0,0,0,49.25403594970703"><animate attributeType="XML" attributeName="stroke-dasharray" restart="always" repeatCount="indefinite" begin="0s" dur="3.125s" values="0,0,0,49.25403594970703; 
          0,24.627017974853516,24.627017974853516,0; 
          49.25403594970703,0,0,0" keyTimes="0; 0.5; 1" fill="freeze"></animate></path>
<defs>
<linearGradient id="paint0_linear_4083_157" x1="5.38672" y1="14.6001" x2="44.9962" y2="28.0289" gradientUnits="userSpaceOnUse">
<stop stop-color="#19A959"></stop>
<stop offset="1" stop-color="#0572AB"></stop>
</linearGradient>
<linearGradient id="paint1_linear_4083_157" x1="1.25489" y1="16.3021" x2="13.0415" y2="30.4649" gradientUnits="userSpaceOnUse">
<stop stop-color="#19A959"></stop>
<stop offset="1" stop-color="#0572AB"></stop>
</linearGradient>
<linearGradient id="paint2_linear_4083_157" x1="0.43457" y1="16.3024" x2="1.71113" y2="16.3706" gradientUnits="userSpaceOnUse">
<stop stop-color="#19A959"></stop>
<stop offset="1" stop-color="#0572AB"></stop>
</linearGradient>
<linearGradient id="paint3_linear_4083_157" x1="37.3604" y1="16.3024" x2="38.6369" y2="16.3706" gradientUnits="userSpaceOnUse">
<stop stop-color="#19A959"></stop>
<stop offset="1" stop-color="#0572AB"></stop>
</linearGradient>
<linearGradient id="paint4_linear_4083_157" x1="1.25489" y1="24.0863" x2="13.0415" y2="38.2491" gradientUnits="userSpaceOnUse">
<stop stop-color="#19A959"></stop>
<stop offset="1" stop-color="#0572AB"></stop>
</linearGradient>
<linearGradient id="paint5_linear_4083_157" x1="0.43457" y1="24.0863" x2="1.71113" y2="24.1545" gradientUnits="userSpaceOnUse">
<stop stop-color="#19A959"></stop>
<stop offset="1" stop-color="#0572AB"></stop>
</linearGradient>
<linearGradient id="paint6_linear_4083_157" x1="37.3604" y1="24.0863" x2="38.6369" y2="24.1545" gradientUnits="userSpaceOnUse">
<stop stop-color="#19A959"></stop>
<stop offset="1" stop-color="#0572AB"></stop>
</linearGradient>
<linearGradient id="paint7_linear_4083_157" x1="1.25489" y1="31.8705" x2="13.0415" y2="46.0332" gradientUnits="userSpaceOnUse">
<stop stop-color="#19A959"></stop>
<stop offset="1" stop-color="#0572AB"></stop>
</linearGradient>
<linearGradient id="paint8_linear_4083_157" x1="0.43457" y1="31.8707" x2="1.71113" y2="31.9389" gradientUnits="userSpaceOnUse">
<stop stop-color="#19A959"></stop>
<stop offset="1" stop-color="#0572AB"></stop>
</linearGradient>
<linearGradient id="paint9_linear_4083_157" x1="37.3604" y1="31.8707" x2="38.6369" y2="31.9389" gradientUnits="userSpaceOnUse">
<stop stop-color="#19A959"></stop>
<stop offset="1" stop-color="#0572AB"></stop>
</linearGradient>
</defs>
</svg>