<?xml version="1.0" standalone="no"?>
<svg id="Group453" width="62" height="62" viewBox="0 0 62 62" fill="none" xmlns="http://www.w3.org/2000/svg" style="max-width: 100%; max-height: 100%;">
<rect width="62" height="62" fill="white" stroke-dasharray="0,0,0,248"><animate attributeType="XML" attributeName="stroke-dasharray" restart="always" repeatCount="indefinite" begin="0s" dur="5.555555555555555s" values="0,0,0,248; 
          0,124,124,0; 
          248,0,0,0" keyTimes="0; 0.5; 1" fill="freeze"></animate></rect>
<mask id="path-2-inside-1_1576_6346" fill="white">
<path d="M51.4924 22.5565C51.3426 22.6167 51.2082 22.6977 51.0726 22.7766C48.5583 18.3968 45.1751 16.0614 42.6915 17.0612C42.074 17.3094 41.5665 17.7478 41.161 18.3277C38.3024 19.9883 36.8876 23.5852 37.2848 27.5377H35.1618L34.9463 25.4981L35.6112 18.4905H37.0747C37.3651 18.4905 37.6229 18.3059 37.717 18.0302L40.5188 9.82118C40.5897 9.61396 40.5559 9.38416 40.4286 9.2055C40.3013 9.02751 40.0959 8.92124 39.8765 8.92124H37.7952C37.5049 8.92124 37.2471 9.10588 37.153 9.3815L36.7391 10.5943H32.946V9.60134C32.946 9.22543 32.6425 8.92124 32.2673 8.92124H31.6787V6.61655C32.6477 6.32225 33.3596 5.42953 33.3596 4.36375C33.3596 3.06067 32.3011 2 31 2C29.6989 2 28.6404 3.06067 28.6404 4.36375C28.6404 5.42953 29.3523 6.32225 30.3213 6.61655V8.92124H29.7327C29.3575 8.92124 29.054 9.22543 29.054 9.60134V10.5943H25.2609L24.847 9.3815C24.7529 9.10588 24.4951 8.92124 24.2048 8.92124H22.1235C21.9041 8.92124 21.6987 9.02751 21.5714 9.2055C21.4441 9.38416 21.4103 9.61396 21.4812 9.82118L24.283 18.0302C24.3771 18.3059 24.6349 18.4905 24.9253 18.4905H26.3888L27.0537 25.4981L26.8382 27.5377H24.7152C25.1124 23.5852 23.6976 19.9883 20.839 18.3277C20.4335 17.7478 19.926 17.3094 19.3085 17.0612C16.8268 16.0626 13.442 18.3975 10.9275 22.7766C10.7918 22.6977 10.6574 22.6167 10.5076 22.5565C8.8267 21.8804 6.91247 22.7013 6.23839 24.3836C5.91162 25.1992 5.9209 26.0938 6.26556 26.9021C6.61023 27.7097 7.24852 28.3354 8.06247 28.6621C8.2123 28.7224 8.36492 28.7593 8.51733 28.7962C7.31365 33.7008 8.14408 37.7292 10.6329 38.7289C11.0246 38.8869 11.4382 38.9646 11.8684 38.9646C12.1192 38.9646 12.377 38.9305 12.638 38.8779C13.1678 39.0046 13.7037 39.0756 14.2433 39.0756C16.9059 39.0751 19.6107 37.5779 21.6281 35.0753H26.0419L25.3435 41.687H23.1814C22.8062 41.687 22.5027 41.9912 22.5027 42.3671V44.2029C22.5027 44.5788 22.8062 44.883 23.1814 44.883H24.9816L21.8953 56.3212H21.2817C20.9066 56.3212 20.603 56.6254 20.603 57.0013V58.6398H18.8154C18.4402 58.6398 18.1367 58.944 18.1367 59.3199C18.1367 59.6958 18.4402 60 18.8154 60H43.1846C43.5598 60 43.8633 59.6958 43.8633 59.3199C43.8633 58.944 43.5598 58.6398 43.1846 58.6398H41.397V57.0013C41.397 56.6254 41.0934 56.3212 40.7183 56.3212H40.1047L37.0184 44.883H38.8186C39.1938 44.883 39.4973 44.5788 39.4973 44.2029V42.3671C39.4973 41.9912 39.1938 41.687 38.8186 41.687H36.6565L35.9581 35.0753H40.3719C42.3893 37.5781 45.0936 39.0756 47.7567 39.0756C48.2957 39.0756 48.8325 39.0046 49.362 38.8779C49.623 38.9306 49.8808 38.9646 50.1316 38.9646C50.5618 38.9646 50.9754 38.8869 51.3671 38.7289C53.8559 37.7292 54.6864 33.7008 53.4827 28.7962C53.6351 28.7593 53.7877 28.7224 53.9375 28.6621C54.7515 28.3354 55.3898 27.7097 55.7344 26.9021C56.0791 26.0938 56.0884 25.1992 55.7616 24.3836C55.0875 22.7013 53.1707 21.881 51.4924 22.5565ZM38.2804 10.2814H38.9273L36.5896 17.1303H35.9433L38.2804 10.2814ZM32.946 11.9545H36.275L35.2353 15.0016H32.946V11.9545ZM29.9978 4.36375C29.9978 3.81051 30.4472 3.36021 31 3.36021C31.5528 3.36021 32.0022 3.81051 32.0022 4.36375C32.0022 4.91767 31.5528 5.36797 31 5.36797C30.4472 5.36797 29.9978 4.91767 29.9978 4.36375ZM31.5886 10.2814V17.1303H30.4114V10.2814H31.5886ZM29.7327 18.4905H32.2673C32.6425 18.4905 32.946 18.1863 32.946 17.8104V16.3619H34.7712L34.3519 17.5906C34.3346 17.6411 34.324 17.693 34.319 17.7451L34.3187 17.746C34.3186 17.7476 34.3184 17.7498 34.3182 17.7514L33.6474 24.822H28.3526L27.6818 17.7514C27.6816 17.7498 27.6815 17.7482 27.6813 17.7466L27.681 17.7451C27.676 17.693 27.6654 17.6411 27.6481 17.5906L27.2288 16.3619H29.054V17.8104C29.054 18.1863 29.3575 18.4905 29.7327 18.4905ZM25.4104 17.1303L23.0727 10.2814H23.7196L26.0567 17.1303H25.4104ZM26.7647 15.0016L25.725 11.9545H29.054V15.0016H26.7647ZM28.3461 26.1822H33.6539L35.2919 41.687H26.7081L28.3461 26.1822ZM8.56753 27.4002C8.0903 27.2083 7.71581 26.8417 7.51431 26.3675C7.31215 25.8933 7.30619 25.3692 7.49774 24.891C7.79933 24.1385 8.52379 23.6796 9.28736 23.6796C9.52597 23.6796 9.7679 23.7248 10.0025 23.8184C10.9875 24.2149 11.4674 25.3407 11.0723 26.3283C10.8808 26.8065 10.5149 27.1811 10.0416 27.3836C9.56839 27.5862 9.04476 27.5915 8.56753 27.4002ZM11.1379 37.467C9.31246 36.7332 8.80888 33.0603 9.90995 28.8303C10.7523 28.6647 11.5124 28.1731 12.0054 27.4358L16.2569 29.145C16.3398 29.1789 16.4253 29.1941 16.5094 29.1941C16.7785 29.1941 17.0331 29.0327 17.1391 28.7671C17.279 28.4184 17.11 28.0226 16.762 27.8831L12.5172 26.1766C12.6704 25.3007 12.4549 24.4163 11.9593 23.7124C14.0807 19.8952 16.9732 17.5908 18.8035 18.3231C20.831 19.1387 21.4614 23.8576 19.1693 29.5833C18.1148 32.2167 16.6466 34.4895 15.0353 35.9832C13.5771 37.3348 12.158 37.8774 11.1379 37.467ZM15.2029 37.6135C15.4538 37.4207 15.7051 37.2147 15.9566 36.9814C17.7131 35.3542 19.3012 32.9068 20.4287 30.0894C21.7769 26.7224 22.2231 23.4669 21.8352 21.0211C23.6073 23.3896 23.9559 27.2701 22.4947 30.9203C21.0353 34.5643 18.1118 37.1228 15.2029 37.6135ZM22.594 33.7151C23.0346 33.0067 23.427 32.2434 23.7541 31.4264C24.0908 30.5856 24.333 29.7385 24.5036 28.8979H26.6945L26.1856 33.7151H22.594ZM40.0395 58.6398H21.9605V57.6814H40.0395V58.6398ZM38.6979 56.3212H23.3021L26.3883 44.883H35.6117L38.6979 56.3212ZM38.1399 43.0472V43.5228H23.8601V43.0472H38.1399ZM35.8143 33.7151L35.3055 28.8979H37.4964C37.667 29.7385 37.9092 30.5856 38.2459 31.4264C38.573 32.2434 38.9656 33.0066 39.4062 33.7151H35.8143ZM39.5053 30.9203C38.0441 27.2701 38.3927 23.3896 40.1648 21.0211C39.7769 23.4669 40.2231 26.7224 41.5713 30.0894C42.6988 32.9068 44.2869 35.3542 46.0434 36.9814C46.2951 37.2149 46.5466 37.421 46.7977 37.6139C43.8887 37.1237 40.9653 34.565 39.5053 30.9203ZM50.862 37.467C49.8406 37.8774 48.4229 37.3348 46.9647 35.9832C45.3534 34.4895 43.8852 32.2167 42.8307 29.5833C40.5386 23.8576 41.169 19.1387 43.1965 18.3231C45.0262 17.5908 47.9186 19.8952 50.0406 23.7124C49.5451 24.4163 49.3296 25.3007 49.4828 26.1766L45.238 27.8831C44.89 28.0226 44.721 28.4184 44.8609 28.7671C44.9669 29.0327 45.2215 29.1941 45.4906 29.1941C45.5747 29.1941 45.6602 29.1789 45.7431 29.145L49.9946 27.4358C50.4876 28.1731 51.2477 28.6647 52.09 28.8303C53.1911 33.0603 52.6875 36.7332 50.862 37.467ZM54.4857 26.3675C54.2842 26.8417 53.9097 27.2083 53.4325 27.4002C52.9552 27.5915 52.4323 27.5869 51.9584 27.3836C51.4851 27.1811 51.1192 26.8065 50.9277 26.3283C50.5326 25.3407 51.0125 24.2149 51.9975 23.8184C52.2321 23.7248 52.474 23.6796 52.7126 23.6796C53.4762 23.6796 54.2007 24.1379 54.5023 24.8904C54.6938 25.3686 54.6878 25.8933 54.4857 26.3675Z" stroke-dasharray="0,0,0,827.91748046875"><animate attributeType="XML" attributeName="stroke-dasharray" restart="always" repeatCount="indefinite" begin="0s" dur="5.555555555555555s" values="0,0,0,827.91748046875; 
          0,413.958740234375,413.958740234375,0; 
          827.91748046875,0,0,0" keyTimes="0; 0.5; 1" fill="freeze"></animate></path>
</mask>
<path d="M51.4924 22.5565C51.3426 22.6167 51.2082 22.6977 51.0726 22.7766C48.5583 18.3968 45.1751 16.0614 42.6915 17.0612C42.074 17.3094 41.5665 17.7478 41.161 18.3277C38.3024 19.9883 36.8876 23.5852 37.2848 27.5377H35.1618L34.9463 25.4981L35.6112 18.4905H37.0747C37.3651 18.4905 37.6229 18.3059 37.717 18.0302L40.5188 9.82118C40.5897 9.61396 40.5559 9.38416 40.4286 9.2055C40.3013 9.02751 40.0959 8.92124 39.8765 8.92124H37.7952C37.5049 8.92124 37.2471 9.10588 37.153 9.3815L36.7391 10.5943H32.946V9.60134C32.946 9.22543 32.6425 8.92124 32.2673 8.92124H31.6787V6.61655C32.6477 6.32225 33.3596 5.42953 33.3596 4.36375C33.3596 3.06067 32.3011 2 31 2C29.6989 2 28.6404 3.06067 28.6404 4.36375C28.6404 5.42953 29.3523 6.32225 30.3213 6.61655V8.92124H29.7327C29.3575 8.92124 29.054 9.22543 29.054 9.60134V10.5943H25.2609L24.847 9.3815C24.7529 9.10588 24.4951 8.92124 24.2048 8.92124H22.1235C21.9041 8.92124 21.6987 9.02751 21.5714 9.2055C21.4441 9.38416 21.4103 9.61396 21.4812 9.82118L24.283 18.0302C24.3771 18.3059 24.6349 18.4905 24.9253 18.4905H26.3888L27.0537 25.4981L26.8382 27.5377H24.7152C25.1124 23.5852 23.6976 19.9883 20.839 18.3277C20.4335 17.7478 19.926 17.3094 19.3085 17.0612C16.8268 16.0626 13.442 18.3975 10.9275 22.7766C10.7918 22.6977 10.6574 22.6167 10.5076 22.5565C8.8267 21.8804 6.91247 22.7013 6.23839 24.3836C5.91162 25.1992 5.9209 26.0938 6.26556 26.9021C6.61023 27.7097 7.24852 28.3354 8.06247 28.6621C8.2123 28.7224 8.36492 28.7593 8.51733 28.7962C7.31365 33.7008 8.14408 37.7292 10.6329 38.7289C11.0246 38.8869 11.4382 38.9646 11.8684 38.9646C12.1192 38.9646 12.377 38.9305 12.638 38.8779C13.1678 39.0046 13.7037 39.0756 14.2433 39.0756C16.9059 39.0751 19.6107 37.5779 21.6281 35.0753H26.0419L25.3435 41.687H23.1814C22.8062 41.687 22.5027 41.9912 22.5027 42.3671V44.2029C22.5027 44.5788 22.8062 44.883 23.1814 44.883H24.9816L21.8953 56.3212H21.2817C20.9066 56.3212 20.603 56.6254 20.603 57.0013V58.6398H18.8154C18.4402 58.6398 18.1367 58.944 18.1367 59.3199C18.1367 59.6958 18.4402 60 18.8154 60H43.1846C43.5598 60 43.8633 59.6958 43.8633 59.3199C43.8633 58.944 43.5598 58.6398 43.1846 58.6398H41.397V57.0013C41.397 56.6254 41.0934 56.3212 40.7183 56.3212H40.1047L37.0184 44.883H38.8186C39.1938 44.883 39.4973 44.5788 39.4973 44.2029V42.3671C39.4973 41.9912 39.1938 41.687 38.8186 41.687H36.6565L35.9581 35.0753H40.3719C42.3893 37.5781 45.0936 39.0756 47.7567 39.0756C48.2957 39.0756 48.8325 39.0046 49.362 38.8779C49.623 38.9306 49.8808 38.9646 50.1316 38.9646C50.5618 38.9646 50.9754 38.8869 51.3671 38.7289C53.8559 37.7292 54.6864 33.7008 53.4827 28.7962C53.6351 28.7593 53.7877 28.7224 53.9375 28.6621C54.7515 28.3354 55.3898 27.7097 55.7344 26.9021C56.0791 26.0938 56.0884 25.1992 55.7616 24.3836C55.0875 22.7013 53.1707 21.881 51.4924 22.5565ZM38.2804 10.2814H38.9273L36.5896 17.1303H35.9433L38.2804 10.2814ZM32.946 11.9545H36.275L35.2353 15.0016H32.946V11.9545ZM29.9978 4.36375C29.9978 3.81051 30.4472 3.36021 31 3.36021C31.5528 3.36021 32.0022 3.81051 32.0022 4.36375C32.0022 4.91767 31.5528 5.36797 31 5.36797C30.4472 5.36797 29.9978 4.91767 29.9978 4.36375ZM31.5886 10.2814V17.1303H30.4114V10.2814H31.5886ZM29.7327 18.4905H32.2673C32.6425 18.4905 32.946 18.1863 32.946 17.8104V16.3619H34.7712L34.3519 17.5906C34.3346 17.6411 34.324 17.693 34.319 17.7451L34.3187 17.746C34.3186 17.7476 34.3184 17.7498 34.3182 17.7514L33.6474 24.822H28.3526L27.6818 17.7514C27.6816 17.7498 27.6815 17.7482 27.6813 17.7466L27.681 17.7451C27.676 17.693 27.6654 17.6411 27.6481 17.5906L27.2288 16.3619H29.054V17.8104C29.054 18.1863 29.3575 18.4905 29.7327 18.4905ZM25.4104 17.1303L23.0727 10.2814H23.7196L26.0567 17.1303H25.4104ZM26.7647 15.0016L25.725 11.9545H29.054V15.0016H26.7647ZM28.3461 26.1822H33.6539L35.2919 41.687H26.7081L28.3461 26.1822ZM8.56753 27.4002C8.0903 27.2083 7.71581 26.8417 7.51431 26.3675C7.31215 25.8933 7.30619 25.3692 7.49774 24.891C7.79933 24.1385 8.52379 23.6796 9.28736 23.6796C9.52597 23.6796 9.7679 23.7248 10.0025 23.8184C10.9875 24.2149 11.4674 25.3407 11.0723 26.3283C10.8808 26.8065 10.5149 27.1811 10.0416 27.3836C9.56839 27.5862 9.04476 27.5915 8.56753 27.4002ZM11.1379 37.467C9.31246 36.7332 8.80888 33.0603 9.90995 28.8303C10.7523 28.6647 11.5124 28.1731 12.0054 27.4358L16.2569 29.145C16.3398 29.1789 16.4253 29.1941 16.5094 29.1941C16.7785 29.1941 17.0331 29.0327 17.1391 28.7671C17.279 28.4184 17.11 28.0226 16.762 27.8831L12.5172 26.1766C12.6704 25.3007 12.4549 24.4163 11.9593 23.7124C14.0807 19.8952 16.9732 17.5908 18.8035 18.3231C20.831 19.1387 21.4614 23.8576 19.1693 29.5833C18.1148 32.2167 16.6466 34.4895 15.0353 35.9832C13.5771 37.3348 12.158 37.8774 11.1379 37.467ZM15.2029 37.6135C15.4538 37.4207 15.7051 37.2147 15.9566 36.9814C17.7131 35.3542 19.3012 32.9068 20.4287 30.0894C21.7769 26.7224 22.2231 23.4669 21.8352 21.0211C23.6073 23.3896 23.9559 27.2701 22.4947 30.9203C21.0353 34.5643 18.1118 37.1228 15.2029 37.6135ZM22.594 33.7151C23.0346 33.0067 23.427 32.2434 23.7541 31.4264C24.0908 30.5856 24.333 29.7385 24.5036 28.8979H26.6945L26.1856 33.7151H22.594ZM40.0395 58.6398H21.9605V57.6814H40.0395V58.6398ZM38.6979 56.3212H23.3021L26.3883 44.883H35.6117L38.6979 56.3212ZM38.1399 43.0472V43.5228H23.8601V43.0472H38.1399ZM35.8143 33.7151L35.3055 28.8979H37.4964C37.667 29.7385 37.9092 30.5856 38.2459 31.4264C38.573 32.2434 38.9656 33.0066 39.4062 33.7151H35.8143ZM39.5053 30.9203C38.0441 27.2701 38.3927 23.3896 40.1648 21.0211C39.7769 23.4669 40.2231 26.7224 41.5713 30.0894C42.6988 32.9068 44.2869 35.3542 46.0434 36.9814C46.2951 37.2149 46.5466 37.421 46.7977 37.6139C43.8887 37.1237 40.9653 34.565 39.5053 30.9203ZM50.862 37.467C49.8406 37.8774 48.4229 37.3348 46.9647 35.9832C45.3534 34.4895 43.8852 32.2167 42.8307 29.5833C40.5386 23.8576 41.169 19.1387 43.1965 18.3231C45.0262 17.5908 47.9186 19.8952 50.0406 23.7124C49.5451 24.4163 49.3296 25.3007 49.4828 26.1766L45.238 27.8831C44.89 28.0226 44.721 28.4184 44.8609 28.7671C44.9669 29.0327 45.2215 29.1941 45.4906 29.1941C45.5747 29.1941 45.6602 29.1789 45.7431 29.145L49.9946 27.4358C50.4876 28.1731 51.2477 28.6647 52.09 28.8303C53.1911 33.0603 52.6875 36.7332 50.862 37.467ZM54.4857 26.3675C54.2842 26.8417 53.9097 27.2083 53.4325 27.4002C52.9552 27.5915 52.4323 27.5869 51.9584 27.3836C51.4851 27.1811 51.1192 26.8065 50.9277 26.3283C50.5326 25.3407 51.0125 24.2149 51.9975 23.8184C52.2321 23.7248 52.474 23.6796 52.7126 23.6796C53.4762 23.6796 54.2007 24.1379 54.5023 24.8904C54.6938 25.3686 54.6878 25.8933 54.4857 26.3675Z" stroke="url(#paint0_linear_1576_6346)" stroke-width="2" mask="url(#path-2-inside-1_1576_6346)" stroke-dasharray="0,0,0,827.91748046875"><animate attributeType="XML" attributeName="stroke-dasharray" restart="always" repeatCount="indefinite" begin="0s" dur="5.555555555555555s" values="0,0,0,827.91748046875; 
          0,413.958740234375,413.958740234375,0; 
          827.91748046875,0,0,0" keyTimes="0; 0.5; 1" fill="freeze"></animate></path>
<defs>
<linearGradient id="paint0_linear_1576_6346" x1="6" y1="3.12498" x2="43.724" y2="10.0719" gradientUnits="userSpaceOnUse">
<stop stop-color="#19A959"></stop>
<stop offset="1" stop-color="#0572AB"></stop>
</linearGradient>
</defs>
</svg>