<?xml version="1.0" standalone="no"?>
<svg id="Group452" width="62" height="62" viewBox="0 0 62 62" fill="none" xmlns="http://www.w3.org/2000/svg" style="max-width: 100%; max-height: 100%;">
<rect width="62" height="62" fill="white" stroke-dasharray="0,0,0,248"><animate attributeType="XML" attributeName="stroke-dasharray" restart="always" repeatCount="indefinite" begin="0s" dur="5.555555555555555s" values="0,0,0,248; 
          0,124,124,0; 
          248,0,0,0" keyTimes="0; 0.5; 1" fill="freeze"></animate></rect>
<path d="M45.2985 17.4735L45.4773 17.6729H45.7452H49.2533V18.5585V20.7125V21.5981H48.3259V20.7125V20.1125H47.7259H39.1429H38.5429V20.7125V22.8666V23.1018L38.7027 23.2744L45.3784 30.4793L45.5565 30.6715H45.8185H49.4V31.9285V33.7111V34.9681H48.4726V33.7111V33.1111H47.8726H39.6564H38.9072L39.0709 33.8422L43.6925 54.4914L43.7974 54.9604H44.278H49.4V57.4H42.8108H19.1158H12.6V54.9604H17.722H18.2026L18.3075 54.4914L22.9291 33.8422L23.0928 33.1111H22.3436H14.1274H13.5274V33.7111V34.8938H12.6V33.7111V31.9285V30.7458H16.1815H16.4493L16.6281 30.5464L23.1571 23.2672L23.3104 23.0962V22.8666V20.7125V20.1125H22.7104H14.1274H13.5274V20.7125V21.5981H12.6V20.7125V18.5585V17.6729H16.1815H16.4493L16.6281 17.4735L23.1571 10.1943L23.3104 10.0233V9.79367V4.6H38.6162V9.79367V10.0233L38.7696 10.1943L45.2985 17.4735ZM42.8108 17.6729H44.1725L43.2536 16.668L39.5856 12.657L38.5429 11.5167V13.0619V17.0729V17.6729H39.1429H42.8108ZM24.471 39.7219H23.9877L23.8848 40.1941L22.7844 45.245L22.6259 45.9728H23.3707H38.4093H39.1541L38.9955 45.245L37.8951 40.1941L37.7922 39.7219H37.3089H24.471ZM24.3983 38.0402L24.2399 38.7678H24.9846H36.7954H37.54L37.3816 38.0402L36.428 33.6578L36.3252 33.1854H35.8417H25.9382H25.4547L25.3519 33.6578L24.3983 38.0402ZM34.508 21.1341L35.517 20.1125H34.0811H27.7722H26.3363L27.3453 21.1341L30.4997 24.3281L30.9266 24.7603L31.3535 24.3281L34.508 21.1341ZM27.3453 16.6513L26.3363 17.6729H27.7722H34.0811H35.517L34.508 16.6513L31.3535 13.4573L30.9266 13.0251L30.4997 13.4573L27.3453 16.6513ZM35.1214 15.9347L36.1483 16.9744V15.5131V9.12517V7.6638L35.1214 8.70356L31.9669 11.8975L31.5505 12.3191L31.9669 12.7407L35.1214 15.9347ZM30.4997 11.2552L30.9266 11.6874L31.3535 11.2552L34.508 8.06123L35.517 7.03961H34.0811H27.7722H26.3363L27.3453 8.06123L30.4997 11.2552ZM29.813 12.815L30.2294 12.3934L29.813 11.9718L26.6586 8.77783L25.6317 7.73808V9.19945V15.5873V17.0487L26.6586 16.009L29.813 12.815ZM29.813 25.8136L30.2294 25.392L29.813 24.9704L26.6586 21.7765L25.6317 20.7367V22.1981V28.586V30.0473L26.6586 29.0076L29.813 25.8136ZM31.3535 26.5302L30.9266 26.098L30.4997 26.5302L27.3453 29.7242L26.3363 30.7458H27.7722H34.0811H35.517L34.508 29.7242L31.3535 26.5302ZM35.1214 29.0076L36.1483 30.0473V28.586V22.1981V20.7367L35.1214 21.7765L31.9669 24.9704L31.5505 25.392L31.9669 25.8136L35.1214 29.0076ZM18.5997 16.668L17.6807 17.6729H19.0425H22.7104H23.3104V17.0729V13.0619V11.5167L22.2676 12.657L18.5997 16.668ZM23.3104 26.1348V24.5896L22.2676 25.7299L18.5997 29.7409L17.6807 30.7458H19.0425H22.7104H23.3104V30.1458V26.1348ZM22.8571 47.0011H22.3773L22.2718 47.4692L20.7313 54.3027L20.5663 55.0347H21.3166H40.5367H41.287L41.122 54.3027L39.5814 47.4692L39.4759 47.0011H38.9961H22.8571ZM42.8108 30.7458H44.1725L43.2536 29.7409L39.5856 25.7299L38.5429 24.5896V26.1348V30.1458V30.7458H39.1429H42.8108Z" stroke="url(#paint0_linear_1576_6343)" stroke-width="1.2" stroke-dasharray="0,0,0,643.6622314453125"><animate attributeType="XML" attributeName="stroke-dasharray" restart="always" repeatCount="indefinite" begin="0s" dur="5.555555555555555s" values="0,0,0,643.6622314453125; 
          0,321.83111572265625,321.83111572265625,0; 
          643.6622314453125,0,0,0" keyTimes="0; 0.5; 1" fill="freeze"></animate></path>
<defs>
<linearGradient id="paint0_linear_1576_6343" x1="12" y1="5.0474" x2="40.9875" y2="9.40487" gradientUnits="userSpaceOnUse">
<stop stop-color="#19A959"></stop>
<stop offset="1" stop-color="#0572AB"></stop>
</linearGradient>
</defs>
</svg>