<?xml version="1.0" standalone="no"?>
<svg id="Group539" width="62" height="62" viewBox="0 0 62 62" fill="none" xmlns="http://www.w3.org/2000/svg" style="max-width: 100%; max-height: 100%;">
<path d="M17.2751 49.0533L17.2751 49.0533C17.1586 48.9743 16.9998 49.0046 16.9206 49.1213L17.2751 49.0533ZM17.2751 49.0533C17.9688 49.5239 18.7363 49.8406 19.5552 49.9932C19.6936 50.019 19.7854 50.1524 19.7599 50.2912C19.7369 50.4135 19.6298 50.4997 19.5098 50.4997C19.4954 50.4997 19.4794 50.4984 19.4616 50.4951C18.5735 50.3295 17.7423 49.9872 16.9886 49.4759L16.9885 49.4758M17.2751 49.0533L16.9885 49.4758M16.9885 49.4758C16.8719 49.3967 16.8414 49.2381 16.9205 49.1213L16.9885 49.4758Z" stroke="url(#paint0_linear_4353_683)" stroke-dasharray="0,0,0,8.015329360961914"><animate attributeType="XML" attributeName="stroke-dasharray" restart="always" repeatCount="indefinite" begin="0s" dur="3s" values="0,0,0,8.015329360961914; 
          0,4.007664680480957,4.007664680480957,0; 
          8.015329360961914,0,0,0" keyTimes="0; 0.5; 1" fill="freeze"></animate></path>
<path d="M24.3006 48.9719L24.3003 48.9721C23.6101 49.4433 22.8443 49.7727 22.0262 49.9508L22.0261 49.9508C21.8884 49.9808 21.801 50.1166 21.8309 50.2543L24.3006 48.9719ZM24.3006 48.9719C24.4166 48.8926 24.5756 48.9224 24.6551 49.0389L24.6552 49.039M24.3006 48.9719L24.6552 49.039M22.1339 50.4498L22.1347 50.4497C23.0182 50.2575 23.843 49.9025 24.5882 49.3937L22.1339 50.4498ZM22.1339 50.4498C22.1155 50.4539 22.0975 50.4557 22.0798 50.4557C21.9626 50.4557 21.857 50.3736 21.8309 50.2545L22.1339 50.4498ZM24.6552 49.039C24.7345 49.1552 24.7047 49.3141 24.5883 49.3937L24.6552 49.039Z" stroke="url(#paint1_linear_4353_683)" stroke-dasharray="0,0,0,13.320249557495117"><animate attributeType="XML" attributeName="stroke-dasharray" restart="always" repeatCount="indefinite" begin="0s" dur="3s" values="0,0,0,13.320249557495117; 
          0,6.660124778747559,6.660124778747559,0; 
          13.320249557495117,0,0,0" keyTimes="0; 0.5; 1" fill="freeze"></animate></path>
<path d="M19.1036 36.7581C18.5354 36.8237 17.9532 36.9372 17.3732 37.0956C17.3063 37.1137 17.2422 37.1411 17.1828 37.177L19.1036 36.7581ZM19.1036 36.7581L19.1036 36.7582L19.1036 36.7581ZM17.6732 38.061L17.7454 38.0421C18.2397 37.9123 18.7348 37.818 19.2195 37.7621L17.6732 38.061ZM17.6732 38.061L17.6098 38.1002M17.6732 38.061L17.6098 38.1002M17.6098 38.1002C17.3789 38.2426 17.1559 38.3941 16.9449 38.5514L17.6098 38.1002ZM19.4438 37.4793L19.4438 37.4791C19.4275 37.338 19.3013 37.2384 19.1617 37.2547L19.161 37.2548C18.6191 37.3174 18.0618 37.4259 17.5049 37.578L17.5039 37.5782L17.5039 37.5782C17.482 37.5842 17.4608 37.5932 17.4412 37.605L17.4405 37.6055C17.1615 37.7732 16.8918 37.9541 16.6396 38.1423L16.6395 38.1423C16.5266 38.2265 16.5033 38.3863 16.5875 38.4994C16.6378 38.5667 16.7138 38.6022 16.7924 38.6021L16.7929 38.6021C16.8458 38.6021 16.8986 38.5859 16.9449 38.5514L19.4438 37.4793ZM19.4438 37.4793C19.46 37.6191 19.3597 37.7458 19.2196 37.762L19.4438 37.4793Z" stroke="url(#paint2_linear_4353_683)" stroke-dasharray="0,0,0,16.2547550201416"><animate attributeType="XML" attributeName="stroke-dasharray" restart="always" repeatCount="indefinite" begin="0s" dur="3s" values="0,0,0,16.2547550201416; 
          0,8.1273775100708,8.1273775100708,0; 
          16.2547550201416,0,0,0" keyTimes="0; 0.5; 1" fill="freeze"></animate></path>
<path d="M27.2039 44.6914C27.0631 44.6688 26.9325 44.7638 26.9097 44.9014L27.2039 44.6914ZM27.2039 44.6914C27.3423 44.7147 27.4364 44.8458 27.4134 44.9853L27.9067 45.0668L27.4134 44.985C27.2638 45.8872 26.9418 46.7262 26.4565 47.4814M27.2039 44.6914L26.1036 47.558M26.4565 47.4814L26.8771 47.7517L26.4565 47.4814ZM26.4565 47.4814C26.408 47.5569 26.3266 47.5987 26.2412 47.5987C26.1943 47.5987 26.1472 47.586 26.1036 47.558M26.1036 47.558C25.9849 47.4815 25.9509 47.3237 26.0269 47.2053L26.1036 47.558ZM26.0269 47.2052C26.4753 46.5077 26.7721 45.7316 26.9097 44.9015L26.0269 47.2052Z" stroke="url(#paint3_linear_4353_683)" stroke-dasharray="0,0,0,15.040712356567383"><animate attributeType="XML" attributeName="stroke-dasharray" restart="always" repeatCount="indefinite" begin="0s" dur="3s" values="0,0,0,15.040712356567383; 
          0,7.520356178283691,7.520356178283691,0; 
          15.040712356567383,0,0,0" keyTimes="0; 0.5; 1" fill="freeze"></animate></path>
<path d="M15.457 47.654L15.457 47.654C15.5721 47.5723 15.5991 47.4128 15.5176 47.2979L15.5176 47.2979C15.0066 46.5775 14.6332 45.8265 14.417 45.0645L15.457 47.654ZM15.457 47.654C15.4119 47.6861 15.3609 47.7011 15.3102 47.7011C15.2291 47.7011 15.1511 47.6634 15.1014 47.5934L15.457 47.654ZM14.1015 44.8884C13.9662 44.927 13.8874 45.068 13.9259 45.204C14.1544 46.0088 14.5476 46.8131 15.1013 47.5933L14.1015 44.8884ZM14.1015 44.8884C14.2373 44.8501 14.3786 44.9291 14.417 45.0644L14.1015 44.8884Z" stroke="url(#paint4_linear_4353_683)" stroke-dasharray="0,0,0,13.178260803222656"><animate attributeType="XML" attributeName="stroke-dasharray" restart="always" repeatCount="indefinite" begin="0s" dur="3s" values="0,0,0,13.178260803222656; 
          0,6.589130401611328,6.589130401611328,0; 
          13.178260803222656,0,0,0" keyTimes="0; 0.5; 1" fill="freeze"></animate></path>
<path d="M15.0315 39.6407L15.0909 39.5448L14.199 39.5402L9.21012 39.5148C9.07139 39.514 8.95878 39.4028 8.95622 39.2643L8.95622 39.2642L8.87595 34.927L8.8665 34.4165L8.35635 34.4366C6.8879 34.4945 5.70386 34.564 4.94162 34.6488L4.94002 34.649C4.93161 34.65 4.92237 34.6505 4.91253 34.6505C4.78452 34.6505 4.67403 34.5534 4.65958 34.4235L4.65957 34.4234C4.64396 34.2832 4.74476 34.1571 4.88519 34.1414C4.8852 34.1414 4.8852 34.1414 4.88521 34.1414L4.82988 33.6445C7.31384 33.368 14.1541 33.2407 21.3293 33.1827L15.0315 39.6407ZM15.0315 39.6407L15.1788 39.436C15.2107 39.3916 15.2275 39.3419 15.2277 39.2896C15.2284 39.1487 15.1148 39.0338 14.9737 39.0331L9.95051 39.0074L9.46222 39.0049L9.45315 38.5167L9.38582 34.8926L9.37665 34.3987L9.8704 34.3836C17.9404 34.136 32.2531 34.1434 38.4623 34.1466C38.4624 34.1466 38.4624 34.1466 38.4624 34.1466L40.1339 34.1473C40.1339 34.1473 40.134 34.1473 40.134 34.1473C40.134 34.1473 40.1341 34.1473 40.1341 34.1473C40.232 34.1472 40.3211 34.091 40.3637 34.0034C40.3687 33.9664 40.376 33.8857 40.3831 33.7121C40.3974 33.359 40.4089 32.6839 40.4156 31.3539C40.4291 28.6982 40.4239 23.4604 40.3892 13.0375C40.3887 12.8966 40.2745 12.783 40.1339 12.783H40.1339H40.1338H40.1338H40.1338H40.1337H40.1337H40.1337H40.1336H40.1336H40.1336H40.1336H40.1335H40.1335H40.1335H40.1334H40.1334H40.1334H40.1333H40.1333H40.1333H40.1332H40.1332H40.1332H40.1331H40.1331H40.1331H40.1331H40.133H40.133H40.133H40.1329H40.1329H40.1329H40.1328H40.1328H40.1328H40.1327H40.1327H40.1327H40.1327H40.1326H40.1326H40.1326H40.1325H40.1325H40.1325H40.1324H40.1324H40.1324H40.1323H40.1323H40.1323C39.9917 12.7837 39.8781 12.8982 39.8786 13.039V13.0392C39.8905 16.5804 39.9017 20.929 39.9067 24.7326L39.9075 25.3303L39.319 25.2255L39.2932 25.2209L39.2781 25.2184C39.2769 25.2183 39.2759 25.2181 39.2752 25.218C31.7819 25.0131 25.9611 24.8547 21.405 24.7307L21.2778 24.7272L21.2532 24.7266C4.99526 24.2843 4.9878 24.2841 2.34828 24.1645L2.34816 24.1645L2.2107 24.1583L2.20611 24.1581C2.11443 24.153 2.02191 24.2031 1.97384 24.2935L1.97384 24.2935C1.92823 24.3793 1.87279 24.5462 1.81883 24.7973C1.76703 25.0384 1.72364 25.3224 1.68787 25.6188C1.61642 26.2109 1.57876 26.8238 1.56109 27.1859C1.55772 27.2559 1.58306 27.3239 1.63082 27.3743C1.67853 27.4246 1.74508 27.4536 1.81547 27.454L39.0808 27.615H39.0809H39.0809H39.0809H39.081H39.081H39.081H39.0811H39.0811H39.0811H39.0812H39.0812H39.0812H39.0812H39.0813H39.0813H39.0813H39.0814H39.0814H39.0814H39.0815H39.0815H39.0815H39.0816H39.0816H39.0816H39.0817H39.0817H39.0817H39.0818H39.0818H39.0818H39.0818H39.0819H39.0819H39.0819H39.082H39.082H39.082H39.0821H39.0821H39.0821H39.0822H39.0822H39.0822H39.0823H39.0823H39.0823H39.0824H39.0824H39.0824H39.0824H39.0825H39.0825H39.0825H39.0826H39.0826H39.0826H39.0827H39.0827H39.0827H39.0828H39.0828H39.0828H39.0829H39.0829H39.0829H39.083L39.083 27.615L39.083 27.615H39.083H39.0831H39.0831H39.0831H39.0832H39.0832H39.0832H39.0833H39.0833H39.0833H39.0834H39.0834H39.0834H39.0835H39.0835H39.0835H39.0836H39.0836H39.0836H39.0836H39.0837H39.0837H39.0837H39.0838H39.0838H39.0838H39.0839H39.0839H39.0839H39.084H39.084H39.084H39.0841C39.1157 27.615 39.1516 27.6073 39.1929 27.5875L39.909 27.2442V28.0384C39.909 28.4947 39.909 28.9325 39.9088 29.35L39.9085 29.9488L39.3194 29.8417L39.2944 29.8372L39.2798 29.8348C39.2783 29.8346 39.2773 29.8344 39.2765 29.8343C31.9016 29.6225 26.1991 29.4596 21.7546 29.3327L21.7298 29.332C6.06376 28.8844 6.05598 28.8841 3.50143 28.7626L3.50128 28.7626L3.37538 28.7566C3.37479 28.7566 3.3742 28.7565 3.37361 28.7565M15.0315 39.6407L3.37361 28.7565M39.0866 32.2634L2.98659 32.0994C2.9865 32.0994 2.98642 32.0994 2.98633 32.0994C2.91649 32.099 2.85017 32.0702 2.80231 32.0199C2.75459 31.9697 2.72928 31.9021 2.73247 31.8323L39.0866 32.2634ZM39.0866 32.2634H39.0867H39.0867H39.0867H39.0868H39.0868H39.0868H39.0869H39.0869H39.0869H39.087H39.087H39.087H39.0871H39.0871H39.0871H39.0872H39.0872H39.0872H39.0873H39.0873H39.0873H39.0874H39.0874H39.0874H39.0875H39.0875H39.0875H39.0876H39.0876H39.0876H39.0877H39.0877H39.0877H39.0878H39.0878H39.0878H39.0879H39.0879H39.088H39.088H39.088H39.0881H39.0881H39.0881H39.0882H39.0882H39.0882H39.0883H39.0883H39.0883H39.0884H39.0884H39.0884H39.0885H39.0885H39.0885H39.0886H39.0886H39.0886H39.0887H39.0887H39.0887H39.0888H39.0888H39.0888H39.0889L39.0889 32.2634L39.0866 32.2634ZM3.37361 28.7565C3.2687 28.7532 3.17408 28.8109 3.13093 28.8961L3.1309 28.8962C3.08635 28.9841 3.03267 29.1545 2.98067 29.4094C2.93073 29.6542 2.88895 29.9424 2.85454 30.2429C2.78579 30.8433 2.74952 31.4651 2.73247 31.8322L3.37361 28.7565ZM13.9779 42.8228L13.9771 42.8226C13.8375 42.7989 13.7446 42.6667 13.7681 42.5292L13.7682 42.5287C13.8995 41.7551 14.1855 41.0084 14.6217 40.3032L14.9642 39.7495L15.1925 40.0381C15.2627 40.1269 15.2677 40.2473 15.2061 40.3379C14.7245 41.046 14.4074 41.8118 14.2713 42.6136L14.2712 42.6139C14.2503 42.7377 14.1426 42.8263 14.0206 42.8263C14.0061 42.8263 13.9917 42.8251 13.9779 42.8228ZM38.3985 27.1012L38.8532 27.1031L38.8982 26.6506L38.9375 26.2557L38.9906 25.7211L38.4536 25.7064C31.2792 25.5103 25.6742 25.3577 21.2635 25.2377C5.96709 24.8216 5.02977 24.7958 2.78902 24.6955L2.34589 24.6757L2.27339 25.1133C2.21607 25.4593 2.1638 25.93 2.12443 26.4054L2.07981 26.9443L2.62057 26.9466L38.3985 27.1012ZM38.4012 31.7492L38.8581 31.7512L38.9012 31.2963L38.9418 30.8682L38.9922 30.3366L38.4584 30.3212C32.1584 30.1403 27.1089 29.996 23.038 29.8797L21.7398 29.8426L21.6913 29.8412C7.06361 29.4231 6.10116 29.3956 3.95651 29.2948L3.50929 29.2738L3.4392 29.716C3.38253 30.0735 3.33102 30.5612 3.29256 31.0531L3.25061 31.5896L3.78877 31.5921L38.4012 31.7492Z" stroke="url(#paint5_linear_4353_683)" stroke-dasharray="0,0,0,491.05572509765625"><animate attributeType="XML" attributeName="stroke-dasharray" restart="always" repeatCount="indefinite" begin="0s" dur="3s" values="0,0,0,491.05572509765625; 
          0,245.52786254882812,245.52786254882812,0; 
          491.05572509765625,0,0,0" keyTimes="0; 0.5; 1" fill="freeze"></animate></path>
<path d="M21.5182 37.5275L21.5182 37.5277C21.4937 37.666 21.5862 37.7987 21.7252 37.8232M21.5182 37.5275L24.3199 38.2265C24.442 38.298 24.4826 38.4546 24.4116 38.5758L24.4113 38.5764C24.3644 38.6566 24.2799 38.7025 24.1907 38.7025C24.147 38.7025 24.1033 38.6915 24.0621 38.6675C23.3579 38.2554 22.5704 37.9724 21.7252 37.8232M21.5182 37.5275C21.5426 37.3894 21.6744 37.2961 21.8148 37.3206M21.5182 37.5275L21.8148 37.3206M21.7252 37.8232L21.6383 38.3152L21.7252 37.8232ZM21.8148 37.3206L21.9009 36.8281L21.8148 37.3206Z" stroke="url(#paint6_linear_4353_683)" stroke-dasharray="0,0,0,9.35168743133545"><animate attributeType="XML" attributeName="stroke-dasharray" restart="always" repeatCount="indefinite" begin="0s" dur="3s" values="0,0,0,9.35168743133545; 
          0,4.675843715667725,4.675843715667725,0; 
          9.35168743133545,0,0,0" keyTimes="0; 0.5; 1" fill="freeze"></animate></path>
<path d="M45.2486 49.476L45.2487 49.4761C46.0028 49.9873 46.8341 50.3298 47.7218 50.4952C47.7397 50.4984 47.7556 50.4998 47.77 50.4998C47.8902 50.4998 47.9971 50.4134 48.0199 50.2912C48.0456 50.1526 47.954 50.0191 47.8155 49.9933L45.2486 49.476ZM45.2486 49.476C45.1319 49.3969 45.1014 49.2384 45.1805 49.1216L45.2486 49.476ZM45.1806 49.1216C45.2598 49.0048 45.4185 48.9746 45.535 49.0535L45.1806 49.1216ZM45.535 49.0535C46.229 49.5239 46.9966 49.8409 47.8154 49.9933L45.535 49.0535Z" stroke="url(#paint7_linear_4353_683)" stroke-dasharray="0,0,0,12.589561462402344"><animate attributeType="XML" attributeName="stroke-dasharray" restart="always" repeatCount="indefinite" begin="0s" dur="3s" values="0,0,0,12.589561462402344; 
          0,6.294780731201172,6.294780731201172,0; 
          12.589561462402344,0,0,0" keyTimes="0; 0.5; 1" fill="freeze"></animate></path>
<path d="M52.5606 48.9714L52.5605 48.9715C51.8701 49.443 51.1041 49.7724 50.2862 49.9505L50.2861 49.9505C50.1484 49.9805 50.0609 50.1164 50.091 50.2544L50.091 50.2545C50.1168 50.3731 50.2221 50.4555 50.3398 50.4555C50.3577 50.4555 50.3758 50.4536 50.3935 50.4497L50.3946 50.4494C51.2781 50.257 52.1029 49.902 52.8483 49.3932C52.9647 49.3136 52.9945 49.1547 52.9152 49.0386L52.5606 48.9714ZM52.5606 48.9714C52.6765 48.8922 52.8354 48.9218 52.9152 49.0385L52.5606 48.9714Z" stroke="url(#paint8_linear_4353_683)" stroke-dasharray="0,0,0,7.505512714385986"><animate attributeType="XML" attributeName="stroke-dasharray" restart="always" repeatCount="indefinite" begin="0s" dur="3s" values="0,0,0,7.505512714385986; 
          0,3.752756357192993,3.752756357192993,0; 
          7.505512714385986,0,0,0" keyTimes="0; 0.5; 1" fill="freeze"></animate></path>
<path d="M52.6708 38.5763L52.6711 38.5758C52.7421 38.4546 52.7015 38.2981 52.5796 38.2266L52.6708 38.5763ZM52.6708 38.5763C52.6239 38.6565 52.5394 38.7024 52.4502 38.7024C52.4065 38.7024 52.3628 38.6915 52.3216 38.6674L52.0693 39.099L52.3219 38.6676C51.6173 38.2552 50.83 37.9724 49.9847 37.8227L49.9845 37.8227C49.8455 37.7982 49.753 37.6655 49.7775 37.5272L49.7775 37.527M52.6708 38.5763L49.7775 37.527M49.7775 37.527C49.8019 37.389 49.934 37.2956 50.074 37.3201L50.1602 36.8276L50.0732 37.32M49.7775 37.527L50.0732 37.32M50.0732 37.32C50.9861 37.4812 51.8285 37.787 52.5794 38.2265L50.0732 37.32Z" stroke="url(#paint9_linear_4353_683)" stroke-dasharray="0,0,0,15.247726440429688"><animate attributeType="XML" attributeName="stroke-dasharray" restart="always" repeatCount="indefinite" begin="0s" dur="3s" values="0,0,0,15.247726440429688; 
          0,7.623863220214844,7.623863220214844,0; 
          15.247726440429688,0,0,0" keyTimes="0; 0.5; 1" fill="freeze"></animate></path>
<path d="M45.2043 38.5516L45.2044 38.5515C45.4155 38.3943 45.6386 38.2427 45.8695 38.1002L45.9329 38.061L46.005 38.0421C46.4998 37.9121 46.995 37.818 47.479 37.7621L45.2043 38.5516ZM45.2043 38.5516C45.158 38.5861 45.1053 38.6022 45.0529 38.6021H45.0522C44.9729 38.6021 44.8969 38.5664 44.8466 38.499C44.7626 38.3862 44.7859 38.2264 44.8989 38.1422L44.899 38.1422C45.1512 37.9541 45.4206 37.7735 45.6992 37.6058C45.7206 37.5931 45.7427 37.5839 45.7639 37.5781L45.7643 37.578C46.322 37.4259 46.8792 37.3174 47.4206 37.2548L47.4212 37.2547C47.5607 37.2384 47.6871 37.3381 47.7033 37.4791L47.7033 37.4793M45.2043 38.5516L47.7033 37.4793M47.7033 37.4793C47.7195 37.6192 47.6192 37.7458 47.4791 37.7621L47.7033 37.4793Z" stroke="url(#paint10_linear_4353_683)" stroke-dasharray="0,0,0,12.271595001220703"><animate attributeType="XML" attributeName="stroke-dasharray" restart="always" repeatCount="indefinite" begin="0s" dur="3s" values="0,0,0,12.271595001220703; 
          0,6.135797500610352,6.135797500610352,0; 
          12.271595001220703,0,0,0" keyTimes="0; 0.5; 1" fill="freeze"></animate></path>
<path d="M42.153 43.3156C42.1957 43.3229 42.2384 43.3263 42.2803 43.3263C42.642 43.3263 42.9616 43.0659 43.0239 42.6973C43.1471 41.9716 43.4348 41.2722 43.8791 40.619C44.1137 40.2739 44.0241 39.8044 43.6791 39.5698C43.6629 39.5587 43.6464 39.5486 43.6296 39.5392L43.4488 39.4677L43.4952 39.2944C43.5002 39.2597 43.5027 39.2242 43.5026 39.1881C43.5008 38.772 43.1631 38.4358 42.7473 38.4358H42.744L42.153 43.3156ZM42.153 43.3156C41.7419 43.2459 41.465 42.8559 41.5349 42.4442C41.6522 41.7532 41.8834 41.0848 42.2223 40.4482L42.153 43.3156ZM26.1578 39.7587L25.9299 39.9817C25.8384 40.0713 25.827 40.212 25.9006 40.3124L25.9007 40.3125C26.3949 40.9873 26.7281 41.745 26.8898 42.562L26.1578 39.7587ZM26.1578 39.7587L26.5024 40.285C26.9378 40.95 27.2361 41.6804 27.3909 42.4628L26.1578 39.7587ZM27.1884 42.7632L27.1899 42.7629C27.3282 42.7355 27.4182 42.6012 27.3909 42.4629L27.1884 42.7632ZM27.1884 42.7632C27.1732 42.7663 27.1571 42.7679 27.1395 42.7679C27.0203 42.7679 26.9138 42.683 26.8898 42.5621L27.1884 42.7632ZM42.2376 42.8228L42.2366 42.8226C42.098 42.7991 42.0042 42.6676 42.0279 42.5279L42.0279 42.5278C42.1645 41.7231 42.4695 40.9472 42.9368 40.2163L43.1377 39.9021L43.3196 39.9507C43.36 39.9616 43.383 39.9731 43.3972 39.9827L43.398 39.9833C43.5147 40.0626 43.5449 40.2212 43.4656 40.3379C42.9839 41.0461 42.6671 41.8121 42.531 42.6136L42.5309 42.6139C42.51 42.7377 42.4023 42.8263 42.2803 42.8263C42.2658 42.8263 42.2514 42.8251 42.2376 42.8228ZM42.92 39.4453L42.5135 39.447L26.9186 39.5111L26.0914 39.5145L26.0168 39.3808C25.992 39.3364 25.9821 39.2966 25.982 39.2602L25.982 39.2598C25.9814 39.1189 26.0952 39.0041 26.2361 39.0035C26.2361 39.0035 26.2361 39.0035 26.2361 39.0035L42.744 38.9358H42.7441H42.7441H42.7441H42.7441H42.7441H42.7442H42.7442H42.7442H42.7442H42.7442H42.7442H42.7443H42.7443H42.7443H42.7443H42.7443H42.7444H42.7444H42.7444H42.7444H42.7444H42.7445H42.7445H42.7445H42.7445H42.7445H42.7445H42.7446H42.7446H42.7446H42.7446H42.7446H42.7447H42.7447H42.7447H42.7447H42.7447H42.7448H42.7448H42.7448H42.7448H42.7448H42.7449H42.7449H42.7449H42.7449H42.7449H42.7449H42.745H42.745H42.745H42.745H42.745H42.7451H42.7451H42.7451H42.7451H42.7451H42.7452H42.7452H42.7452H42.7452H42.7452H42.7453H42.7453H42.7453H42.7453H42.7453H42.7453H42.7454H42.7454H42.7454H42.7454H42.7454H42.7455H42.7455H42.7455H42.7455H42.7455H42.7456H42.7456H42.7456H42.7456H42.7456H42.7456H42.7457H42.7457H42.7457H42.7457H42.7457H42.7458H42.7458H42.7458H42.7458H42.7458H42.7459H42.7459H42.7459H42.7459H42.7459H42.746H42.746H42.746H42.746H42.746H42.746H42.7461H42.7461H42.7461H42.7461H42.7461H42.7462H42.7462H42.7462H42.7462H42.7462H42.7463H42.7463H42.7463H42.7463H42.7463H42.7463H42.7464H42.7464H42.7464H42.7464H42.7464H42.7465H42.7465H42.7465H42.7465H42.7465H42.7466H42.7466H42.7466H42.7466H42.7466H42.7467H42.7467H42.7467H42.7467H42.7467H42.7467H42.7468H42.7468H42.7468H42.7468H42.7468H42.7469H42.7469H42.7469H42.7469H42.7469H42.747H42.747H42.747H42.747H42.747H42.7471H42.7471H42.7471H42.7471H42.7471H42.7471H42.7472H42.7472H42.7472H42.7472H42.7472H42.7473C42.8878 38.9358 43.002 39.0494 43.0026 39.1901V39.1902C43.0027 39.22 42.9969 39.2509 42.9839 39.2838L42.92 39.4453Z" stroke="url(#paint11_linear_4353_683)" stroke-dasharray="0,0,0,72.52355194091797"><animate attributeType="XML" attributeName="stroke-dasharray" restart="always" repeatCount="indefinite" begin="0s" dur="3s" values="0,0,0,72.52355194091797; 
          0,36.261775970458984,36.261775970458984,0; 
          72.52355194091797,0,0,0" keyTimes="0; 0.5; 1" fill="freeze"></animate></path>
<path d="M43.7165 47.6545L43.7167 47.6544C43.8316 47.5729 43.8587 47.4135 43.7771 47.2984L43.7771 47.2984C43.2661 46.5779 42.8928 45.8269 42.6766 45.0648L43.7165 47.6545ZM43.7165 47.6545C43.6714 47.6866 43.6205 47.7016 43.5697 47.7016C43.4886 47.7016 43.4107 47.664 43.3609 47.594L43.7165 47.6545ZM42.3612 44.8888C42.4963 44.8507 42.6382 44.93 42.6765 45.0647L43.3609 47.5939C42.8072 46.8136 42.414 46.0092 42.1854 45.2043C42.1469 45.0684 42.2257 44.9274 42.3612 44.8888Z" stroke="url(#paint12_linear_4353_683)" stroke-dasharray="0,0,0,12.5535249710083"><animate attributeType="XML" attributeName="stroke-dasharray" restart="always" repeatCount="indefinite" begin="0s" dur="3s" values="0,0,0,12.5535249710083; 
          0,6.27676248550415,6.27676248550415,0; 
          12.5535249710083,0,0,0" keyTimes="0; 0.5; 1" fill="freeze"></animate></path>
<path d="M55.169 44.9005L55.169 44.9007C55.0316 45.7309 54.7349 46.5068 54.2865 47.2044L55.169 44.9005ZM55.169 44.9005C55.1919 44.7622 55.3224 44.6677 55.4628 44.6905C55.6017 44.7137 55.6958 44.8452 55.6729 44.9842L56.1662 45.0655L55.6729 44.9837C55.5233 45.8862 55.2015 46.7252 54.716 47.4805L54.716 47.4805M55.169 44.9005L54.716 47.4805M54.716 47.4805C54.6675 47.556 54.5862 47.5978 54.5007 47.5978C54.4538 47.5978 54.4067 47.5851 54.363 47.5571M54.716 47.4805L54.363 47.5571M54.363 47.5571C54.2446 47.4809 54.2103 47.323 54.2864 47.2044L54.363 47.5571Z" stroke="url(#paint13_linear_4353_683)" stroke-dasharray="0,0,0,13.590155601501465"><animate attributeType="XML" attributeName="stroke-dasharray" restart="always" repeatCount="indefinite" begin="0s" dur="3s" values="0,0,0,13.590155601501465; 
          0,6.795077800750732,6.795077800750732,0; 
          13.590155601501465,0,0,0" keyTimes="0; 0.5; 1" fill="freeze"></animate></path>
<path d="M57.9225 27.9439L57.9053 27.7062C57.5982 23.4683 56.3526 19.1225 54.3931 15.4489L54.3869 15.4373L54.3871 15.4372C53.6386 13.9404 53.1175 13.2624 52.5147 12.8988C51.9016 12.529 51.1344 12.4367 49.7115 12.3395L49.7114 12.3395L49.7034 12.339C49.4575 12.3221 49.1906 12.3038 48.902 12.2816L48.9015 12.2816C48.8965 12.2812 48.8904 12.2809 48.8824 12.2809C48.4817 12.2809 48.0615 12.2644 47.6658 12.2488L47.6382 12.2477L47.6378 12.2477C46.7548 12.2124 45.8802 12.1807 45.088 12.3051L45.0794 12.3064L45.0794 12.3063C45.0674 12.308 45.0606 12.309 45.0557 12.3099C45.0538 12.3102 45.0527 12.3104 45.0521 12.3105L45.0353 12.3147L45.017 12.3178C44.09 12.476 43.3513 12.8449 42.8905 13.6519L42.8851 13.6613L42.885 13.6613C42.8823 13.6656 42.8796 13.6702 42.8767 13.675C42.6827 13.9958 41.9066 15.2794 41.8862 24.6926C41.8762 29.2589 42.049 33.5821 42.0544 33.7178L42.0545 33.7198C42.055 33.7319 42.0573 33.7494 42.0644 33.7757L42.0711 33.8001L42.0752 33.8252C42.0953 33.9469 42.1993 34.0372 42.3219 34.0387L42.3222 34.0387L57.3161 34.2312L57.5948 34.2347L57.7383 34.4737C58.2827 35.3803 58.5585 36.765 57.9777 37.8353C57.5925 38.5452 56.9327 38.905 56.2653 39.072C55.6039 39.2375 54.8905 39.2271 54.2994 39.1664C54.1582 39.1524 54.0331 39.2556 54.019 39.394L54.019 39.3945C54.0125 39.4575 54.0305 39.5191 54.0705 39.5722L54.2428 39.8005L54.1333 40.0647C54.0981 40.1495 54.1082 40.2421 54.1603 40.3131L54.1604 40.3133C54.6546 40.988 54.9879 41.7458 55.1495 42.5628L57.9225 27.9439ZM57.9225 27.9439L58.1179 28.0802M57.9225 27.9439L58.1179 28.0802M58.1179 28.0802C58.8747 28.608 59.3784 29.5526 59.4343 30.7252C59.4913 31.931 59.0684 33.0253 58.3383 33.7397L58.066 34.0061L58.2505 34.3394C58.861 35.4416 59.0566 36.9179 58.427 38.0787C58.1119 38.6592 57.3016 39.6381 55.2846 39.7096L54.4327 39.7398M58.1179 28.0802L54.4327 39.7398M55.4481 42.7639L55.4496 42.7637C55.5879 42.7363 55.6779 42.602 55.6506 42.4636L55.4481 42.7639ZM55.4481 42.7639C55.433 42.767 55.4168 42.7686 55.3992 42.7686C55.28 42.7686 55.1735 42.6838 55.1495 42.5628L55.4481 42.7639ZM54.4327 39.7398L54.8749 40.4686M54.4327 39.7398L54.8749 40.4686M54.8749 40.4686C55.2486 41.0848 55.51 41.7526 55.6506 42.4636L54.8749 40.4686ZM58.9241 30.7496L58.9241 30.7495C58.8786 29.7939 58.4841 28.9354 57.7719 28.4681L57.6505 28.3884L57.5052 28.3862C56.9084 28.377 54.7367 28.3647 52.1526 28.3524L51.6502 28.3501V28.8524V33.1541V33.6477L52.1438 33.6541L57.3805 33.7212L57.5461 33.7233L57.6802 33.6262C58.5252 33.0142 58.9783 31.893 58.9241 30.7496ZM45.8446 12.7416L45.3691 12.7649L45.3691 13.241L45.3689 27.3155L45.3689 27.8137L45.867 27.8155C46.9852 27.8196 49.1913 27.8283 51.3989 27.8382C52.971 27.8453 54.5435 27.8531 55.7244 27.8606L55.7348 27.8607C56.1988 27.8637 56.5641 27.8661 56.8575 27.8699L57.4107 27.8771L57.3621 27.326C57.01 23.3351 55.7808 19.1369 53.9365 15.6768C53.6413 15.0866 53.3944 14.6164 53.1517 14.2508C52.9045 13.8784 52.6448 13.5877 52.3121 13.3764C51.9799 13.1655 51.6135 13.0581 51.1945 12.9903C50.7882 12.9245 50.295 12.8908 49.6988 12.8501L49.6766 12.8485L49.6764 12.8485C49.4323 12.8319 49.1717 12.8141 48.8911 12.7927L48.8726 12.7913L48.8541 12.7913C48.4463 12.7904 48.0305 12.774 47.6175 12.7576L47.6173 12.7576C46.9616 12.7317 46.3672 12.716 45.8446 12.7416ZM44.8583 13.5787V12.7267L44.1145 13.1422C43.7915 13.3226 43.5238 13.5736 43.3279 13.9144C43.1591 14.1982 43.039 14.613 42.9443 15.0767C42.846 15.5583 42.7645 16.1492 42.6969 16.8196C42.5617 18.1612 42.4788 19.8552 42.4348 21.6979C42.3469 25.3852 42.4144 29.7009 42.5393 33.0555L42.557 33.5308L43.0325 33.5369L50.633 33.6344L51.1394 33.6409V33.1345V28.8455V28.3478L50.6417 28.3455C48.7615 28.3371 46.7881 28.3294 45.1126 28.3233C44.9722 28.3228 44.8583 28.2086 44.8583 28.068V13.5787Z" stroke="url(#paint14_linear_4353_683)" stroke-dasharray="0,0,0,255.42025756835938"><animate attributeType="XML" attributeName="stroke-dasharray" restart="always" repeatCount="indefinite" begin="0s" dur="3s" values="0,0,0,255.42025756835938; 
          0,127.71012878417969,127.71012878417969,0; 
          255.42025756835938,0,0,0" keyTimes="0; 0.5; 1" fill="freeze"></animate></path>
<path d="M52.0797 18.3139L52.0793 18.3141C52.0285 18.3431 51.9925 18.3856 51.9714 18.4352L51.9514 18.4821L51.9223 18.5241C51.5905 19.003 49.9095 21.1335 49.1944 22.0346L49.3966 22.1995L49.4261 22.2236L49.4516 22.2518L49.5698 22.3827C49.8071 22.0858 50.2027 21.5856 50.8661 20.7395L52.0797 18.3139ZM52.0797 18.3139C52.1951 18.2477 52.3445 18.2812 52.4196 18.3848L52.0797 18.3139ZM52.4196 18.3848C52.4744 18.4604 52.4813 18.4959 52.4825 18.5035L52.4825 18.5038C52.4832 18.5083 52.4863 18.5278 52.4655 18.582C52.4072 18.7334 52.2585 18.937 51.9461 19.3473L52.4196 18.3848ZM51.946 19.3473C51.6552 19.7292 51.2621 20.2342 50.8662 20.7394L51.946 19.3473Z" stroke="url(#paint15_linear_4353_683)" stroke-dasharray="0,0,0,16.49864959716797"><animate attributeType="XML" attributeName="stroke-dasharray" restart="always" repeatCount="indefinite" begin="0s" dur="3s" values="0,0,0,16.49864959716797; 
          0,8.249324798583984,8.249324798583984,0; 
          16.49864959716797,0,0,0" keyTimes="0; 0.5; 1" fill="freeze"></animate></path>
<path d="M52.7954 20.7443L52.7951 20.7441C52.6857 20.6564 52.5249 20.6737 52.4363 20.7842C52.4362 20.7842 52.4362 20.7843 52.4362 20.7843L50.7169 22.9336C50.6287 23.0439 50.6467 23.2045 50.7567 23.2924L50.7571 23.2928C50.8039 23.3303 50.8591 23.3484 50.9159 23.3484C50.9918 23.3484 51.0654 23.3154 51.1156 23.2527C51.1156 23.2527 51.1156 23.2527 51.1157 23.2527C51.1157 23.2526 51.1157 23.2526 51.1158 23.2526L52.8352 21.1031L52.7954 20.7443ZM52.7954 20.7443C52.9053 20.8322 52.9233 20.9927 52.8353 21.103L52.7954 20.7443Z" stroke="url(#paint16_linear_4353_683)" stroke-dasharray="0,0,0,7.831860065460205"><animate attributeType="XML" attributeName="stroke-dasharray" restart="always" repeatCount="indefinite" begin="0s" dur="3s" values="0,0,0,7.831860065460205; 
          0,3.9159300327301025,3.9159300327301025,0; 
          7.831860065460205,0,0,0" keyTimes="0; 0.5; 1" fill="freeze"></animate></path>
<path d="M33.7454 23.8382L33.8526 23.8428M33.7454 23.8382L4.18668 20.534C4.21042 20.1384 4.53584 19.8283 4.93225 19.8238L34.1282 19.4954C34.3343 19.4958 34.5292 19.5739 34.6731 19.7191M33.7454 23.8382C31.6826 23.7519 31.6826 23.7519 18.9353 23.5167L18.935 23.5167C15.3465 23.4507 10.7488 23.3659 4.81141 23.2552L33.7454 23.8382ZM33.8526 23.8428C33.8634 23.8432 33.874 23.8434 33.8846 23.8434C34.1949 23.8434 34.4748 23.6533 34.5883 23.3622M33.8526 23.8428L33.8737 23.3432M33.8526 23.8428L4.68578 20.5639L4.57077 22.4847C4.57077 22.4847 4.57077 22.4847 4.57077 22.4847C4.56662 22.554 4.5909 22.622 4.63824 22.6732C4.68523 22.7241 4.7511 22.7538 4.82116 22.7552C10.7583 22.8659 15.3558 22.9508 18.9442 23.0168L18.9442 23.0168L18.9748 23.0173C31.6881 23.2519 31.6977 23.2521 33.7663 23.3387L33.7665 23.3387L33.8726 23.3432L33.8737 23.3432M34.5883 23.3622C34.8164 22.7763 34.8766 21.002 34.8917 20.2664C34.896 20.0618 34.817 19.8646 34.6731 19.7191M34.5883 23.3622L34.1223 23.1808M34.5883 23.3622L34.1224 23.1805C34.1577 23.0898 34.198 22.9163 34.235 22.6626C34.2707 22.4183 34.299 22.1314 34.3212 21.8332C34.3657 21.2375 34.3843 20.6202 34.3918 20.2561L34.3918 20.2559C34.3932 20.1871 34.3668 20.1204 34.3177 20.0708L34.6731 19.7191M34.6731 19.7191L34.318 20.0711C34.2724 20.0252 34.2078 19.9962 34.1297 19.9954L4.93797 20.3238L34.1223 23.1808M33.8737 23.3432L33.8846 23.3434C33.9892 23.3434 34.0838 23.2793 34.1223 23.1808M33.8737 23.3432L34.1223 23.1808M4.68579 20.5639C4.69384 20.4302 4.80382 20.3253 4.93788 20.3238L4.68579 20.5639ZM5.64674 20.8264L5.18106 20.8316L5.15325 21.2965L5.12736 21.7294L5.09625 22.2495L5.61715 22.2592C11.1759 22.3628 15.5252 22.443 18.9536 22.5063C30.5209 22.7198 31.6018 22.7397 33.2435 22.8061L33.7109 22.825L33.7609 22.3599C33.7995 22.0002 33.832 21.5216 33.8543 21.0377L33.8786 20.5088L33.3492 20.5148L5.64674 20.8264Z" stroke="url(#paint17_linear_4353_683)" stroke-dasharray="0,0,0,310.856689453125"><animate attributeType="XML" attributeName="stroke-dasharray" restart="always" repeatCount="indefinite" begin="0s" dur="3s" values="0,0,0,310.856689453125; 
          0,155.4283447265625,155.4283447265625,0; 
          310.856689453125,0,0,0" keyTimes="0; 0.5; 1" fill="freeze"></animate></path>
<path d="M20.5549 40.7747C22.2126 40.7747 23.562 42.124 23.562 43.7818C23.562 45.4393 22.2126 46.7886 20.5549 46.7886C18.8973 46.7886 17.5479 45.4393 17.5479 43.7818C17.5479 42.124 18.8973 40.7747 20.5549 40.7747ZM18.0584 43.7818C18.0584 45.1587 19.1779 46.2781 20.5549 46.2781C21.932 46.2781 23.0515 45.1587 23.0515 43.7818C23.0515 42.4046 21.9321 41.2852 20.5549 41.2852C19.1778 41.2852 18.0584 42.4046 18.0584 43.7818Z" stroke="url(#paint18_linear_4353_683)" stroke-dasharray="0,0,0,34.57614517211914"><animate attributeType="XML" attributeName="stroke-dasharray" restart="always" repeatCount="indefinite" begin="0s" dur="3s" values="0,0,0,34.57614517211914; 
          0,17.28807258605957,17.28807258605957,0; 
          34.57614517211914,0,0,0" keyTimes="0; 0.5; 1" fill="freeze"></animate></path>
<path d="M48.9075 40.4495C50.5651 40.4495 51.9146 41.799 51.9146 43.4566C51.9146 45.1141 50.5651 46.4634 48.9075 46.4634C47.2499 46.4634 45.9004 45.1141 45.9004 43.4566C45.9004 41.7988 47.2499 40.4495 48.9075 40.4495ZM46.411 43.4566C46.411 44.8335 47.5306 45.9529 48.9075 45.9529C50.2843 45.9529 51.404 44.8335 51.404 43.4566C51.404 42.0794 50.2846 40.96 48.9075 40.96C47.5304 40.96 46.411 42.0794 46.411 43.4566Z" stroke="url(#paint19_linear_4353_683)" stroke-dasharray="0,0,0,34.57594299316406"><animate attributeType="XML" attributeName="stroke-dasharray" restart="always" repeatCount="indefinite" begin="0s" dur="3s" values="0,0,0,34.57594299316406; 
          0,17.28797149658203,17.28797149658203,0; 
          34.57594299316406,0,0,0" keyTimes="0; 0.5; 1" fill="freeze"></animate></path>
<defs>
<linearGradient id="paint0_linear_4353_683" x1="16.3765" y1="48.5576" x2="19.1057" y2="49.4677" gradientUnits="userSpaceOnUse">
<stop stop-color="#19A959"></stop>
<stop offset="1" stop-color="#0572AB"></stop>
</linearGradient>
<linearGradient id="paint1_linear_4353_683" x1="21.325" y1="48.4765" x2="24.0549" y2="49.3703" gradientUnits="userSpaceOnUse">
<stop stop-color="#19A959"></stop>
<stop offset="1" stop-color="#0572AB"></stop>
</linearGradient>
<linearGradient id="paint2_linear_4353_683" x1="16.0369" y1="36.7985" x2="18.7439" y2="37.7607" gradientUnits="userSpaceOnUse">
<stop stop-color="#19A959"></stop>
<stop offset="1" stop-color="#0572AB"></stop>
</linearGradient>
<linearGradient id="paint3_linear_4353_683" x1="25.4863" y1="44.2638" x2="27.3495" y2="44.5112" gradientUnits="userSpaceOnUse">
<stop stop-color="#19A959"></stop>
<stop offset="1" stop-color="#0572AB"></stop>
</linearGradient>
<linearGradient id="paint4_linear_4353_683" x1="13.416" y1="44.4528" x2="15.4379" y2="44.7521" gradientUnits="userSpaceOnUse">
<stop stop-color="#19A959"></stop>
<stop offset="1" stop-color="#0572AB"></stop>
</linearGradient>
<linearGradient id="paint5_linear_4353_683" x1="1.06079" y1="12.8851" x2="29.9797" y2="20.8175" gradientUnits="userSpaceOnUse">
<stop stop-color="#19A959"></stop>
<stop offset="1" stop-color="#0572AB"></stop>
</linearGradient>
<linearGradient id="paint6_linear_4353_683" x1="21.0142" y1="36.8629" x2="23.7434" y2="37.8239" gradientUnits="userSpaceOnUse">
<stop stop-color="#19A959"></stop>
<stop offset="1" stop-color="#0572AB"></stop>
</linearGradient>
<linearGradient id="paint7_linear_4353_683" x1="44.6365" y1="48.5578" x2="47.3657" y2="49.468" gradientUnits="userSpaceOnUse">
<stop stop-color="#19A959"></stop>
<stop offset="1" stop-color="#0572AB"></stop>
</linearGradient>
<linearGradient id="paint8_linear_4353_683" x1="49.585" y1="48.476" x2="52.3149" y2="49.3697" gradientUnits="userSpaceOnUse">
<stop stop-color="#19A959"></stop>
<stop offset="1" stop-color="#0572AB"></stop>
</linearGradient>
<linearGradient id="paint9_linear_4353_683" x1="49.2734" y1="36.8624" x2="52.0029" y2="37.8233" gradientUnits="userSpaceOnUse">
<stop stop-color="#19A959"></stop>
<stop offset="1" stop-color="#0572AB"></stop>
</linearGradient>
<linearGradient id="paint10_linear_4353_683" x1="44.2961" y1="36.7985" x2="47.0033" y2="37.7608" gradientUnits="userSpaceOnUse">
<stop stop-color="#19A959"></stop>
<stop offset="1" stop-color="#0572AB"></stop>
</linearGradient>
<linearGradient id="paint11_linear_4353_683" x1="25.3523" y1="38.5306" x2="34.098" y2="45.658" gradientUnits="userSpaceOnUse">
<stop stop-color="#19A959"></stop>
<stop offset="1" stop-color="#0572AB"></stop>
</linearGradient>
<linearGradient id="paint12_linear_4353_683" x1="41.6755" y1="44.4533" x2="43.6974" y2="44.7526" gradientUnits="userSpaceOnUse">
<stop stop-color="#19A959"></stop>
<stop offset="1" stop-color="#0572AB"></stop>
</linearGradient>
<linearGradient id="paint13_linear_4353_683" x1="53.7458" y1="44.2629" x2="55.609" y2="44.5102" gradientUnits="userSpaceOnUse">
<stop stop-color="#19A959"></stop>
<stop offset="1" stop-color="#0572AB"></stop>
</linearGradient>
<linearGradient id="paint14_linear_4353_683" x1="41.3857" y1="12.3281" x2="55.634" y2="14.1178" gradientUnits="userSpaceOnUse">
<stop stop-color="#19A959"></stop>
<stop offset="1" stop-color="#0572AB"></stop>
</linearGradient>
<linearGradient id="paint15_linear_4353_683" x1="48.4954" y1="17.8839" x2="51.8879" y2="18.4898" gradientUnits="userSpaceOnUse">
<stop stop-color="#19A959"></stop>
<stop offset="1" stop-color="#0572AB"></stop>
</linearGradient>
<linearGradient id="paint16_linear_4353_683" x1="50.1609" y1="20.2592" x2="52.5942" y2="20.718" gradientUnits="userSpaceOnUse">
<stop stop-color="#19A959"></stop>
<stop offset="1" stop-color="#0572AB"></stop>
</linearGradient>
<linearGradient id="paint17_linear_4353_683" x1="4.07031" y1="19.5797" x2="11.3717" y2="30.6357" gradientUnits="userSpaceOnUse">
<stop stop-color="#19A959"></stop>
<stop offset="1" stop-color="#0572AB"></stop>
</linearGradient>
<linearGradient id="paint18_linear_4353_683" x1="17.0479" y1="40.4107" x2="22.2806" y2="41.5285" gradientUnits="userSpaceOnUse">
<stop stop-color="#19A959"></stop>
<stop offset="1" stop-color="#0572AB"></stop>
</linearGradient>
<linearGradient id="paint19_linear_4353_683" x1="45.4004" y1="40.0855" x2="50.6331" y2="41.2033" gradientUnits="userSpaceOnUse">
<stop stop-color="#19A959"></stop>
<stop offset="1" stop-color="#0572AB"></stop>
</linearGradient>
</defs>
</svg>