<?xml version="1.0" encoding="UTF-8" standalone="no"?>
<svg id="Group451" width="62" height="62" viewBox="0 0 62 62" fill="none" xmlns="http://www.w3.org/2000/svg" style="max-width: 100%; max-height: 100%;">
<rect width="62" height="62" fill="white" stroke-dasharray="0,0,0,248"><animate attributeType="XML" attributeName="stroke-dasharray" restart="always" repeatCount="indefinite" begin="0s" dur="5.555555555555555s" values="0,0,0,248;            0,124,124,0;            248,0,0,0" keyTimes="0; 0.5; 1" fill="freeze"/></rect>
<mask id="path-2-inside-1_1576_6332" fill="white">
<path d="M16.2 10.2C16.2 9.6 15.7 9 15 9C14.4 9 13.8 9.5 13.8 10.2V13.5H16.1V10.2H16.2Z" stroke-dasharray="0,0,0,12.760085105895996"><animate attributeType="XML" attributeName="stroke-dasharray" restart="always" repeatCount="indefinite" begin="0s" dur="5.555555555555555s" values="0,0,0,12.760085105895996;            0,6.380042552947998,6.380042552947998,0;            12.760085105895996,0,0,0" keyTimes="0; 0.5; 1" fill="freeze"/></path>
<path d="M13.8 25.4V29.3H16.2V25.4H13.8Z" stroke-dasharray="0,0,0,12.600000381469727"><animate attributeType="XML" attributeName="stroke-dasharray" restart="always" repeatCount="indefinite" begin="0s" dur="5.555555555555555s" values="0,0,0,12.600000381469727;            0,6.300000190734863,6.300000190734863,0;            12.600000381469727,0,0,0" keyTimes="0; 0.5; 1" fill="freeze"/></path>
<path d="M16.2 50.3C16.2 49.4 16.2 40.7 16.2 41.2H13.8V50.3C12.6 50.4 11.6 51.3 11.3 52.4H18.7C18.4 51.3 17.4 50.4 16.2 50.3Z" stroke-dasharray="0,0,0,34.98289489746094"><animate attributeType="XML" attributeName="stroke-dasharray" restart="always" repeatCount="indefinite" begin="0s" dur="5.555555555555555s" values="0,0,0,34.98289489746094;            0,17.49144744873047,17.49144744873047,0;            34.98289489746094,0,0,0" keyTimes="0; 0.5; 1" fill="freeze"/></path>
<path d="M48.2 10.2C48.2 9.6 47.7 9 47 9C46.4 9 45.8 9.5 45.8 10.2V13.5H48.1V10.2H48.2Z" stroke-dasharray="0,0,0,12.760102272033691"><animate attributeType="XML" attributeName="stroke-dasharray" restart="always" repeatCount="indefinite" begin="0s" dur="5.555555555555555s" values="0,0,0,12.760102272033691;            0,6.380051136016846,6.380051136016846,0;            12.760102272033691,0,0,0" keyTimes="0; 0.5; 1" fill="freeze"/></path>
<path d="M48.1 25.4H45.8V29.3H48.1V25.4Z" stroke-dasharray="0,0,0,12.39999771118164"><animate attributeType="XML" attributeName="stroke-dasharray" restart="always" repeatCount="indefinite" begin="0s" dur="5.555555555555555s" values="0,0,0,12.39999771118164;            0,6.19999885559082,6.19999885559082,0;            12.39999771118164,0,0,0" keyTimes="0; 0.5; 1" fill="freeze"/></path>
<path d="M48.2 50.3V41.2H45.9V50.3C44.7 50.4 43.7 51.3 43.4 52.4H50.8C50.4 51.3 49.4 50.4 48.2 50.3Z" stroke-dasharray="0,0,0,34.89570999145508"><animate attributeType="XML" attributeName="stroke-dasharray" restart="always" repeatCount="indefinite" begin="0s" dur="5.555555555555555s" values="0,0,0,34.89570999145508;            0,17.44785499572754,17.44785499572754,0;            34.89570999145508,0,0,0" keyTimes="0; 0.5; 1" fill="freeze"/></path>
<path d="M53 14.5H9C7.9 14.5 7 15.4 7 16.5V22.4C7 23.5 7.9 24.4 9 24.4H53C54.1 24.4 55 23.5 55 22.4V16.5C55 15.4 54.1 14.5 53 14.5ZM9 23.4C8.5 23.4 8 23 8 22.4V16.5C8 16 8.5 15.5 9 15.5H9.8L13.3 23.4H9ZM18 23.4L14.5 15.5H18.4L21.9 23.4H18ZM26.5 23.4L23 15.5H26.9L30.4 23.4H26.5ZM35.1 23.4L31.6 15.5H35.5L39 23.4H35.1ZM43.6 23.4L40.1 15.5H44L47.5 23.4H43.6ZM54 22.4C54 23 53.6 23.4 53 23.4H52.2L48.7 15.5H53C53.6 15.5 54 16 54 16.5V22.4Z" stroke-dasharray="0,0,0,258.2480773925781"><animate attributeType="XML" attributeName="stroke-dasharray" restart="always" repeatCount="indefinite" begin="0s" dur="5.555555555555555s" values="0,0,0,258.2480773925781;            0,129.12403869628906,129.12403869628906,0;            258.2480773925781,0,0,0" keyTimes="0; 0.5; 1" fill="freeze"/></path>
<path d="M53 30.3H9C7.9 30.3 7 31.2 7 32.3V38.2C7 39.3 7.9 40.2 9 40.2H53C54.1 40.2 55 39.3 55 38.2V32.3C55 31.2 54.1 30.3 53 30.3ZM9 39.2C8.5 39.2 8 38.8 8 38.2V32.3C8 31.8 8.5 31.3 9 31.3H9.8L13.3 39.2H9ZM18 39.2L14.5 31.3H18.4L21.9 39.2H18ZM26.5 39.2L23 31.3H26.9L30.4 39.2H26.5ZM35.1 39.2L31.6 31.3H35.5L39 39.2H35.1ZM43.6 39.2L40.1 31.3H44L47.5 39.2H43.6ZM54 38.2C54 38.8 53.6 39.2 53 39.2H52.2L48.7 31.3H53C53.6 31.3 54 31.8 54 32.3V38.2Z" stroke-dasharray="0,0,0,258.248291015625"><animate attributeType="XML" attributeName="stroke-dasharray" restart="always" repeatCount="indefinite" begin="0s" dur="5.555555555555555s" values="0,0,0,258.248291015625;            0,129.1241455078125,129.1241455078125,0;            258.248291015625,0,0,0" keyTimes="0; 0.5; 1" fill="freeze"/></path>
</mask>
<path d="M16.2 10.2C16.2 9.6 15.7 9 15 9C14.4 9 13.8 9.5 13.8 10.2V13.5H16.1V10.2H16.2Z" stroke="url(#paint0_linear_1576_6332)" stroke-width="3.6" mask="url(#path-2-inside-1_1576_6332)" stroke-dasharray="0,0,0,12.760085105895996"><animate attributeType="XML" attributeName="stroke-dasharray" restart="always" repeatCount="indefinite" begin="0s" dur="5.555555555555555s" values="0,0,0,12.760085105895996;            0,6.380042552947998,6.380042552947998,0;            12.760085105895996,0,0,0" keyTimes="0; 0.5; 1" fill="freeze"/></path>
<path d="M13.8 25.4V29.3H16.2V25.4H13.8Z" stroke="url(#paint1_linear_1576_6332)" stroke-width="3.6" mask="url(#path-2-inside-1_1576_6332)" stroke-dasharray="0,0,0,12.600000381469727"><animate attributeType="XML" attributeName="stroke-dasharray" restart="always" repeatCount="indefinite" begin="0s" dur="5.555555555555555s" values="0,0,0,12.600000381469727;            0,6.300000190734863,6.300000190734863,0;            12.600000381469727,0,0,0" keyTimes="0; 0.5; 1" fill="freeze"/></path>
<path d="M16.2 50.3C16.2 49.4 16.2 40.7 16.2 41.2H13.8V50.3C12.6 50.4 11.6 51.3 11.3 52.4H18.7C18.4 51.3 17.4 50.4 16.2 50.3Z" stroke="url(#paint2_linear_1576_6332)" stroke-width="3.6" mask="url(#path-2-inside-1_1576_6332)" stroke-dasharray="0,0,0,34.98289489746094"><animate attributeType="XML" attributeName="stroke-dasharray" restart="always" repeatCount="indefinite" begin="0s" dur="5.555555555555555s" values="0,0,0,34.98289489746094;            0,17.49144744873047,17.49144744873047,0;            34.98289489746094,0,0,0" keyTimes="0; 0.5; 1" fill="freeze"/></path>
<path d="M48.2 10.2C48.2 9.6 47.7 9 47 9C46.4 9 45.8 9.5 45.8 10.2V13.5H48.1V10.2H48.2Z" stroke="url(#paint3_linear_1576_6332)" stroke-width="3.6" mask="url(#path-2-inside-1_1576_6332)" stroke-dasharray="0,0,0,12.760102272033691"><animate attributeType="XML" attributeName="stroke-dasharray" restart="always" repeatCount="indefinite" begin="0s" dur="5.555555555555555s" values="0,0,0,12.760102272033691;            0,6.380051136016846,6.380051136016846,0;            12.760102272033691,0,0,0" keyTimes="0; 0.5; 1" fill="freeze"/></path>
<path d="M48.1 25.4H45.8V29.3H48.1V25.4Z" stroke="url(#paint4_linear_1576_6332)" stroke-width="3.6" mask="url(#path-2-inside-1_1576_6332)" stroke-dasharray="0,0,0,12.39999771118164"><animate attributeType="XML" attributeName="stroke-dasharray" restart="always" repeatCount="indefinite" begin="0s" dur="5.555555555555555s" values="0,0,0,12.39999771118164;            0,6.19999885559082,6.19999885559082,0;            12.39999771118164,0,0,0" keyTimes="0; 0.5; 1" fill="freeze"/></path>
<path d="M48.2 50.3V41.2H45.9V50.3C44.7 50.4 43.7 51.3 43.4 52.4H50.8C50.4 51.3 49.4 50.4 48.2 50.3Z" stroke="url(#paint5_linear_1576_6332)" stroke-width="3.6" mask="url(#path-2-inside-1_1576_6332)" stroke-dasharray="0,0,0,34.89570999145508"><animate attributeType="XML" attributeName="stroke-dasharray" restart="always" repeatCount="indefinite" begin="0s" dur="5.555555555555555s" values="0,0,0,34.89570999145508;            0,17.44785499572754,17.44785499572754,0;            34.89570999145508,0,0,0" keyTimes="0; 0.5; 1" fill="freeze"/></path>
<path d="M53 14.5H9C7.9 14.5 7 15.4 7 16.5V22.4C7 23.5 7.9 24.4 9 24.4H53C54.1 24.4 55 23.5 55 22.4V16.5C55 15.4 54.1 14.5 53 14.5ZM9 23.4C8.5 23.4 8 23 8 22.4V16.5C8 16 8.5 15.5 9 15.5H9.8L13.3 23.4H9ZM18 23.4L14.5 15.5H18.4L21.9 23.4H18ZM26.5 23.4L23 15.5H26.9L30.4 23.4H26.5ZM35.1 23.4L31.6 15.5H35.5L39 23.4H35.1ZM43.6 23.4L40.1 15.5H44L47.5 23.4H43.6ZM54 22.4C54 23 53.6 23.4 53 23.4H52.2L48.7 15.5H53C53.6 15.5 54 16 54 16.5V22.4Z" stroke="url(#paint6_linear_1576_6332)" stroke-width="3.6" mask="url(#path-2-inside-1_1576_6332)" stroke-dasharray="0,0,0,258.2480773925781"><animate attributeType="XML" attributeName="stroke-dasharray" restart="always" repeatCount="indefinite" begin="0s" dur="5.555555555555555s" values="0,0,0,258.2480773925781;            0,129.12403869628906,129.12403869628906,0;            258.2480773925781,0,0,0" keyTimes="0; 0.5; 1" fill="freeze"/></path>
<path d="M53 30.3H9C7.9 30.3 7 31.2 7 32.3V38.2C7 39.3 7.9 40.2 9 40.2H53C54.1 40.2 55 39.3 55 38.2V32.3C55 31.2 54.1 30.3 53 30.3ZM9 39.2C8.5 39.2 8 38.8 8 38.2V32.3C8 31.8 8.5 31.3 9 31.3H9.8L13.3 39.2H9ZM18 39.2L14.5 31.3H18.4L21.9 39.2H18ZM26.5 39.2L23 31.3H26.9L30.4 39.2H26.5ZM35.1 39.2L31.6 31.3H35.5L39 39.2H35.1ZM43.6 39.2L40.1 31.3H44L47.5 39.2H43.6ZM54 38.2C54 38.8 53.6 39.2 53 39.2H52.2L48.7 31.3H53C53.6 31.3 54 31.8 54 32.3V38.2Z" stroke="url(#paint7_linear_1576_6332)" stroke-width="3.6" mask="url(#path-2-inside-1_1576_6332)" stroke-dasharray="0,0,0,258.248291015625"><animate attributeType="XML" attributeName="stroke-dasharray" restart="always" repeatCount="indefinite" begin="0s" dur="5.555555555555555s" values="0,0,0,258.248291015625;            0,129.1241455078125,129.1241455078125,0;            258.248291015625,0,0,0" keyTimes="0; 0.5; 1" fill="freeze"/></path>
<defs>
<linearGradient id="paint0_linear_1576_6332" x1="7" y1="30.4921" x2="25.0648" y2="49.2021" gradientUnits="userSpaceOnUse">
<stop stop-color="#19A959"/>
<stop offset="1" stop-color="#0572AB"/>
</linearGradient>
<linearGradient id="paint1_linear_1576_6332" x1="7" y1="30.4921" x2="25.0648" y2="49.2021" gradientUnits="userSpaceOnUse">
<stop stop-color="#19A959"/>
<stop offset="1" stop-color="#0572AB"/>
</linearGradient>
<linearGradient id="paint2_linear_1576_6332" x1="7" y1="30.4921" x2="25.0648" y2="49.2021" gradientUnits="userSpaceOnUse">
<stop stop-color="#19A959"/>
<stop offset="1" stop-color="#0572AB"/>
</linearGradient>
<linearGradient id="paint3_linear_1576_6332" x1="7" y1="30.4921" x2="25.0648" y2="49.2021" gradientUnits="userSpaceOnUse">
<stop stop-color="#19A959"/>
<stop offset="1" stop-color="#0572AB"/>
</linearGradient>
<linearGradient id="paint4_linear_1576_6332" x1="7" y1="30.4921" x2="25.0648" y2="49.2021" gradientUnits="userSpaceOnUse">
<stop stop-color="#19A959"/>
<stop offset="1" stop-color="#0572AB"/>
</linearGradient>
<linearGradient id="paint5_linear_1576_6332" x1="7" y1="30.4921" x2="25.0648" y2="49.2021" gradientUnits="userSpaceOnUse">
<stop stop-color="#19A959"/>
<stop offset="1" stop-color="#0572AB"/>
</linearGradient>
<linearGradient id="paint6_linear_1576_6332" x1="7" y1="30.4921" x2="25.0648" y2="49.2021" gradientUnits="userSpaceOnUse">
<stop stop-color="#19A959"/>
<stop offset="1" stop-color="#0572AB"/>
</linearGradient>
<linearGradient id="paint7_linear_1576_6332" x1="7" y1="30.4921" x2="25.0648" y2="49.2021" gradientUnits="userSpaceOnUse">
<stop stop-color="#19A959"/>
<stop offset="1" stop-color="#0572AB"/>
</linearGradient>
</defs>
</svg>